<?xml version="1.0" encoding="utf-8"?>
<!-- Generator: Adobe Illustrator 25.2.3, SVG Export Plug-In . SVG Version: 6.00 Build 0)  -->
<svg version="1.1" id="Capa_1" xmlns="http://www.w3.org/2000/svg" xmlns:xlink="http://www.w3.org/1999/xlink" x="0px" y="0px"
	 viewBox="0 0 291.1 144.1" style="enable-background:new 0 0 291.1 144.1;" xml:space="preserve">
<style type="text/css">
	.st0{fill:#323132;}
</style>
<g>
	<path class="st0" d="M77.2,132.5c0,0.1,0.1,0.2,0.2,0.3c0,0,0.1-0.1,0.1-0.1c0-0.1,0-0.3,0-0.5C77.5,132.3,77.3,132.4,77.2,132.5z"
		/>
	<polygon class="st0" points="50.4,131.9 50.4,131.9 50.5,131.9 	"/>
	<path class="st0" d="M47.1,133c0,0.1,0,0.3,0,0.4c0.3-0.1,0.5-0.2,0.7-0.3c0,0,0-0.1-0.1-0.1C47.6,133,47.4,133,47.1,133z"/>
	<path class="st0" d="M46.7,133.7c-0.1,0-0.2,0-0.4,0.1c0,0.1,0.1,0.1,0.1,0.1c0.1,0,0.2,0,0.4,0C46.8,133.8,46.7,133.7,46.7,133.7z
		"/>
	<path class="st0" d="M26.3,116.4c0,0.1,0,0.3,0,0.4c0,0,0.1,0.1,0.2,0.1c0-0.2,0-0.3,0-0.4C26.5,116.5,26.4,116.5,26.3,116.4z"/>
	<polygon class="st0" points="51.2,132.9 51.4,132.7 51.1,132.7 	"/>
	<path class="st0" d="M49.4,133.1C49.4,133.1,49.5,133.2,49.4,133.1c0.1,0.1,0.2,0,0.2,0c0,0-0.1-0.1-0.1-0.1L49.4,133.1z"/>
	<path class="st0" d="M27.4,120.9c0,0,0.1,0.1,0.1,0.1l0.1-0.2l-0.1-0.1C27.4,120.8,27.4,120.8,27.4,120.9z"/>
	<path class="st0" d="M66.4,133.9l0.1-0.1l0-0.1c-0.1,0-0.1,0-0.2,0.1C66.3,133.7,66.4,133.8,66.4,133.9z"/>
	<path class="st0" d="M148.4,131.3c0,0.1,0.1,0.2,0.2,0.3c0,0,0.1-0.1,0.1-0.1c0-0.1,0-0.3,0-0.5
		C148.6,131.1,148.5,131.2,148.4,131.3z"/>
	<path class="st0" d="M121.6,130.7C121.6,130.7,121.6,130.7,121.6,130.7C121.6,130.7,121.6,130.7,121.6,130.7
		C121.6,130.7,121.6,130.7,121.6,130.7z"/>
	<path class="st0" d="M118.3,131.8c0,0.1,0,0.3,0,0.4c0.3-0.1,0.5-0.2,0.7-0.3c0,0,0-0.1-0.1-0.1
		C118.8,131.8,118.6,131.8,118.3,131.8z"/>
	<path class="st0" d="M117.6,132.6c0,0.1,0.1,0.1,0.1,0.1c0.1,0,0.2,0,0.4,0c-0.1-0.1-0.1-0.2-0.1-0.2
		C117.8,132.5,117.7,132.6,117.6,132.6z"/>
	<path class="st0" d="M100,133.2c0.1,0,0.2,0.1,0.3,0.1c0,0,0.1-0.1,0.1-0.2c-0.1,0-0.2,0-0.4,0C100.1,133.1,100.1,133.2,100,133.2z
		"/>
	<path class="st0" d="M122.4,131.7c0.1-0.1,0.1-0.1,0.2-0.2c-0.1,0-0.2,0-0.2,0C122.3,131.5,122.3,131.6,122.4,131.7z"/>
	<path class="st0" d="M120.6,131.9C120.6,131.9,120.6,131.9,120.6,131.9c0.1,0.1,0.2,0,0.2,0c0,0-0.1-0.1-0.1-0.1
		C120.7,131.8,120.6,131.8,120.6,131.9z"/>
	<path class="st0" d="M103.2,132.9c0,0,0.1,0.1,0.2,0.1c0,0,0,0,0.1-0.1c0,0-0.1-0.1-0.1-0.1C103.3,132.8,103.2,132.8,103.2,132.9z"
		/>
	<path class="st0" d="M137.5,132.6c0,0,0.1-0.1,0.1-0.1c0,0,0-0.1,0-0.1c-0.1,0-0.1,0-0.2,0.1C137.5,132.5,137.5,132.6,137.5,132.6z
		"/>
	<path class="st0" d="M219.6,130c0,0.1,0.1,0.2,0.2,0.3c0,0,0.1-0.1,0.1-0.1c0-0.1,0-0.3,0-0.5C219.8,129.9,219.7,130,219.6,130z"/>
	<path class="st0" d="M192.7,129.5C192.7,129.5,192.7,129.5,192.7,129.5C192.7,129.5,192.7,129.5,192.7,129.5
		C192.7,129.5,192.7,129.5,192.7,129.5z"/>
	<path class="st0" d="M189.5,130.6c0,0.1,0,0.3,0,0.4c0.3-0.1,0.5-0.2,0.7-0.3c0,0,0-0.1-0.1-0.1
		C189.9,130.6,189.7,130.6,189.5,130.6z"/>
	<path class="st0" d="M188.8,131.4c0,0.1,0.1,0.1,0.1,0.1c0.1,0,0.2,0,0.4,0c-0.1-0.1-0.1-0.2-0.1-0.2
		C189,131.3,188.9,131.4,188.8,131.4z"/>
	<path class="st0" d="M171.2,132c0.1,0,0.2,0.1,0.3,0.1c0,0,0.1-0.1,0.1-0.2c-0.1,0-0.2,0-0.4,0C171.2,131.9,171.2,132,171.2,132z"
		/>
	<path class="st0" d="M193.5,130.5c0.1-0.1,0.1-0.1,0.2-0.2c-0.1,0-0.2,0-0.2,0C193.5,130.3,193.5,130.4,193.5,130.5z"/>
	<path class="st0" d="M191.7,130.7C191.7,130.7,191.8,130.7,191.7,130.7c0.1,0.1,0.2,0,0.2,0c0,0-0.1-0.1-0.1-0.1
		C191.8,130.6,191.8,130.6,191.7,130.7z"/>
	<path class="st0" d="M174.4,131.7c0,0,0.1,0.1,0.2,0.1c0,0,0,0,0.1-0.1c0,0-0.1-0.1-0.1-0.1C174.4,131.6,174.4,131.6,174.4,131.7z"
		/>
	<path class="st0" d="M208.7,131.4c0,0,0.1-0.1,0.1-0.1c0,0,0-0.1,0-0.1c-0.1,0-0.1,0-0.2,0.1C208.6,131.3,208.7,131.4,208.7,131.4z
		"/>
	<path class="st0" d="M268.9,89.2c0.1-0.1,0.2-0.1,0.2-0.2c0,0-0.1-0.1-0.1-0.1c-0.1,0-0.3,0-0.5,0C268.7,89,268.8,89.1,268.9,89.2z
		"/>
	<path class="st0" d="M267.1,118.5L267.1,118.5L267.1,118.5C267.1,118.5,267.1,118.5,267.1,118.5z"/>
	<path class="st0" d="M270,108.3c-0.1-0.1,0-0.4,0-0.6c0-0.6,0-1.1,0-1.7c0.7-0.4,1-0.9,0.6-1.5c-0.3-0.5-0.1-0.7,0-1.1
		c0.1-0.3,0.1-0.7,0.1-1c0-0.2-0.1-0.5-0.2-0.7c-0.1-0.2-0.4-0.4-0.5-0.5c0.1-0.5,0.1-0.8,0.2-1.1c0-0.1,0.1-0.2,0.2-0.3
		c0-0.3,0-0.6-0.3-0.9c-0.4-0.3,0.4-0.6,0-0.9c-0.1-0.1,0.2-0.2,0.1-0.4c-0.3-0.8-0.3-1.6,0.2-2.4c-0.1-0.1-0.3-0.3-0.4-0.4
		c0-0.4,0.1-0.7,0.1-1.1c0-0.3-0.1-0.5-0.3-0.7c-0.2-0.3,0.4-0.4,0.1-0.7c-0.1-0.1,0.1-0.4,0.1-0.8c-0.5,0.3-0.8,0.6-1.2,0.3
		c0.1-0.1,0.1-0.2,0.2-0.3c-0.2-0.1-0.3-0.1-0.4-0.2c0.4-0.5,0.7-1.1,1.1-1.7c-0.5,0-0.6-0.3-0.8-0.6c0,0-0.1,0-0.1,0
		c-0.2,0-0.4-0.2-0.2-0.3c-0.1-0.1,0.2-0.2,0.4-0.1c0,0,0.1,0,0.1,0.1c0.4-0.1,0.6-0.2,0.8-0.3c-0.3-0.2,0-0.4-0.1-0.6
		c-0.1,0-0.3-0.1-0.4-0.1c0.3-0.2,0.5-0.4,0.7-0.6c-0.4-0.1-0.2-0.7-0.7-0.6l0-0.3c0-0.1,0-0.3,0.1-0.5c-0.6,0.3-0.6,0.3-0.7-0.1
		l0.9-0.2c-0.1-0.3-0.3-0.3-0.4-0.4c-0.1-0.1-0.4-0.3-0.4-0.4c0.1-0.5,0.1-1,0.3-1.3c0.4-0.5,0.1-0.8,0.1-1.3c0-0.1-0.1-0.4-0.1-0.4
		c0.4-0.2-0.3-0.4,0-0.7c0.1-0.1,0-0.6,0-0.9c0-0.3,0-0.6-0.1-0.9c0.2-0.1,0.4-0.1,0.4-0.2c-0.1-0.5-0.3-0.9-0.4-1.4
		c0-0.1-0.1-0.3-0.1-0.4c0.1-0.5,0.3-1,0.5-1.6c-0.3-0.3-0.6-0.6-0.9-1c0,0,0-0.1-0.1-0.2c0.1-0.1,0.3-0.1,0.4-0.2
		c-0.2-0.2-0.4-0.3-0.5-0.5c0.3-0.3,0.4-0.6-0.1-0.8c0,0.1-0.1,0.1-0.1,0.2c0-0.1-0.1-0.1-0.1-0.1c0,0,0.1-0.1,0.2-0.1
		c0,0,0,0.1,0,0.1c0.2-0.6-0.7-0.6-0.5-1.2c0.1-0.1,0.3-0.2,0.5-0.3c-0.2-0.1-0.3-0.1-0.5-0.1c0.3-1,0.3-1.8,0-2.6l0.5-0.3
		c0,0,0,0,0-0.1l-0.1,0c-0.1-0.2-0.3-0.4-0.6-0.7c-0.2-0.2-0.2-0.4-0.3-0.6c0.2,0,0.3,0.1,0.4,0.2c0.1,0.1,0.2,0.1,0.4,0.2
		c0-0.1,0.1-0.4,0-0.4c-0.4-0.2,0.1-0.4-0.1-0.5c-0.2-0.1-0.4-0.2-0.6-0.3c-0.1,0-0.1-0.1-0.1-0.2c0.2-0.2,0.5-0.4,0.7-0.6
		c-0.1-0.7-0.6-0.8-1-1.1c0,0,0-0.1,0-0.2c0.2-0.1,0.4-0.1,0.7-0.2c-0.3-0.2-0.6-0.3-0.8-0.5l0.1-0.2c0.3,0.1,0.6,0.1,1,0.2
		c-0.2-0.3-0.3-0.4-0.3-0.5c-0.4,0.1-0.6-0.1-0.8-0.6c0.3-0.3,0.6-0.6,0.9-0.9c-0.3-1.2-0.3-1.2,0.1-1.4c0-0.5-0.3-1.1-0.1-1.6
		c0.2-0.5,0-0.9-0.2-1.3c-0.2-0.4-0.2-0.7-0.3-1.1c0-0.2-0.2-0.4-0.2-0.7c0-0.2,0.1-0.5,0.1-0.8c0-0.3,0-0.7-0.1-1
		c0-0.3,0-0.7-0.1-0.8c-0.3-0.3,0.2-0.6,0-0.8c-0.1-0.2-0.3-0.3-0.5-0.4c0.1,0,0.2-0.1,0.3-0.1c0.1,0,0.3-0.1,0.4-0.1
		c0-0.7-0.5-0.2-0.7-0.4c0-0.5-0.1-0.9-0.1-1.4c0.5-0.3,0.5-0.5,0.3-0.5c-0.5,0-0.4-0.3-0.4-0.6c0-0.1-0.1-0.1-0.1-0.1
		c-0.2,0.1-0.4,0.2-0.7,0.3c0.1-0.4,0.2-0.6,0.3-0.8c-0.2,0-0.5,0-0.8,0.1c0.3-0.5,0.4-0.8,0.7-1.2c-0.2-0.3-0.5-0.6-0.7-0.9
		c0.1-0.1,0.3-0.1,0.4-0.2c-0.2-0.3-0.5-0.5-0.8-0.9l0,0c0,0-0.1-0.1,0-0.1c-0.1-0.1-0.1-0.1,0-0.1c0.1,0,0.1,0.1,0.2,0.1l0,0.1
		c0.4,0,0.7-0.1,0.9,0.2c0,0,0.2-0.1,0.3-0.2c-0.1-0.1-0.2-0.3-0.2-0.3c-0.4,0-0.3-0.3-0.3-0.5l-0.2-0.1l0.2-0.1
		c0.3-0.2-0.1-0.8,0.5-0.8c0.1-0.4,0.5-0.8,0.2-1.3c-0.2-0.3-0.2-0.7-0.2-1c0,0,0.1-0.1,0.1-0.2c0.1,0.2,0.2,0.3,0.4,0.7
		c0-0.4,0-0.6-0.1-0.7c-0.1-0.3-0.4-0.7-0.4-1c0-0.4,0.2-0.8-0.2-1.1c0.4-0.7,0-1.3-0.4-1.8c-0.1-0.1,0-0.3-0.1-0.5l-0.1-1.5
		c0.7-0.5,0.9-0.9,0.5-1.6c-0.3-0.4-0.2-0.7-0.1-1.1c0.1-0.3,0.1-0.7,0.1-1c0-0.2-0.1-0.5-0.2-0.6c-0.2-0.2-0.4-0.4-0.5-0.5
		c0-0.5,0-0.8,0.1-1.1c0-0.1,0.1-0.2,0.2-0.3c0-0.3,0-0.6-0.3-0.9c-0.4-0.3,0.4-0.6-0.1-0.9c-0.1,0,0-0.1,0-0.2c0-0.1,0.1-0.1,0-0.4
		c-0.2-0.7-0.4-1.5-0.4-2.2c0-0.4,0-0.8,0-1.1c0-0.4,0-0.7,0-1c-0.2-0.2-0.4-0.4-0.5-0.5c-0.1-0.6-0.2-1.2-0.4-1.7
		c-0.1-0.4-0.4-0.8-0.6-1.1c-0.3-0.4,0.1-0.9-0.3-1.2c-0.1-0.1-0.1-0.7-0.3-1.4c-0.2,0.7-0.3,1.4-0.8,1.2c0-0.2,0-0.3,0-0.5
		c-0.2,0-0.3,0-0.4,0c0-1,0.2-2.2-0.3-3c-0.4,0.4-0.7,0.2-1.3,0.1c0,0,0,0.1,0,0.1c-0.2,0.1-0.5,0.2-0.6-0.1c-0.2,0-0.1-0.2,0.1-0.4
		c0,0,0.1,0,0.2,0c0.2-0.4,0.2-0.6,0.2-0.8c-0.4,0.1-0.6-0.3-0.9-0.3c-0.1,0.1-0.3,0.2-0.4,0.3c-0.1-0.3-0.2-0.7-0.4-1
		c-0.2,0.1-0.6,0.1-0.9,0.1c-0.3,0-0.5,0.1-0.6,0.3c-0.1,0-0.3-0.1-0.4-0.1c-0.2-0.1-0.5-0.1-0.8-0.2c0.3,0.6,0.3,0.6-0.6,0.7l0.1-1
		c-0.5,0.1-0.7,0.2-0.9,0.3c-0.3,0.1-0.7,0.3-1,0.3c-0.8-0.1-1.8-0.2-2.3-0.5c-0.8-0.5-1.6-0.1-2.3-0.2c-0.2,0-0.4,0.1-0.4,0
		c-0.1-0.5-0.5,0.3-0.7-0.1c-0.1-0.2-0.6-0.1-0.9-0.1c-0.3,0-0.6,0-0.9,0c-0.1-0.2-0.1-0.4-0.1-0.4c-0.5,0.1-1,0.2-1.5,0.3
		c-0.1,0-0.3,0.1-0.4,0c-0.5-0.2-1-0.4-1.6-0.6c-0.3,0.2-0.7,0.5-1,0.8c0,0-0.1,0-0.2,0.1c-0.1-0.2-0.1-0.3-0.2-0.4
		c-0.2,0.2-0.4,0.3-0.5,0.5c-0.3-0.3-0.6-0.5-0.8,0c0.1,0,0.1,0.1,0.2,0.1c-0.1,0-0.1,0.1-0.2,0c0-0.1-0.1-0.1-0.1-0.2
		c0,0,0.1,0,0.1,0c-0.6-0.2-0.7,0.6-1.2,0.5c-0.1-0.1-0.1-0.3-0.3-0.5c-0.1,0.2-0.1,0.3-0.2,0.5c-1-0.4-1.8-0.4-2.6-0.2l-0.2-0.5
		c0,0,0,0-0.1,0l0,0.1c-0.2,0.1-0.4,0.2-0.8,0.6c-0.2,0.1-0.4,0.2-0.7,0.3c0-0.2,0.2-0.3,0.3-0.4c0.1-0.1,0.1-0.2,0.2-0.4
		c-0.1,0-0.4-0.1-0.4-0.1c-0.2,0.3-0.4-0.1-0.5,0c-0.1,0.2-0.2,0.4-0.4,0.6c0,0-0.1,0.1-0.3,0.1c-0.2-0.2-0.4-0.5-0.6-0.7
		c-0.7,0.1-0.8,0.5-1.2,0.9c0,0-0.1,0-0.2,0c0-0.2-0.1-0.4-0.1-0.7c-0.2,0.3-0.4,0.5-0.5,0.8l-0.2-0.1c0.1-0.3,0.2-0.6,0.3-1
		c-0.3,0.2-0.4,0.2-0.5,0.3c0.1,0.4-0.2,0.6-0.6,0.8c-0.3-0.3-0.5-0.6-0.8-1c-1.2,0.2-1.2,0.2-1.4-0.2c-0.5,0-1.2,0.2-1.6,0
		c-0.5-0.2-0.9,0-1.3,0.1c-0.4,0.1-0.8,0.2-1.1,0.2c-0.2,0-0.4,0.2-0.7,0.2c-0.2,0-0.5-0.1-0.7-0.2c-0.3,0-0.7,0-1,0
		c-0.3,0-0.7-0.1-0.8,0.1c-0.3,0.3-0.6-0.3-0.8,0c-0.2,0.1-0.3,0.3-0.4,0.5c0-0.1-0.1-0.2-0.1-0.3c0-0.1-0.1-0.3-0.1-0.4
		c-0.7-0.1-0.3,0.5-0.5,0.7c-0.5,0-0.9,0-1.4,0c-0.2-0.5-0.5-0.6-0.5-0.3c0,0.5-0.3,0.3-0.6,0.4c-0.1,0-0.1,0.1-0.1,0.1
		c0.1,0.2,0.1,0.4,0.2,0.7c-0.4-0.2-0.6-0.3-0.8-0.3c0,0.2,0,0.5,0,0.8c-0.5-0.3-0.8-0.5-1.2-0.7c-0.3,0.2-0.6,0.4-1,0.7
		c-0.1-0.1-0.1-0.3-0.2-0.4c-0.3,0.2-0.6,0.5-0.9,0.8l0,0c0,0-0.1,0.1-0.1,0c-0.1,0.1-0.2,0-0.1,0c0-0.1,0.1-0.1,0.1-0.1l0.1,0
		c0.1-0.4,0-0.7,0.3-0.9c0,0-0.1-0.2-0.1-0.4c-0.1,0.1-0.3,0.1-0.3,0.2c0,0.4-0.3,0.3-0.5,0.3l-0.2,0.2l-0.1-0.2
		c-0.2-0.3-0.8,0-0.8-0.6c-0.4-0.1-0.7-0.6-1.3-0.3c-0.3,0.2-0.7,0.1-1.1,0.2c0,0-0.1-0.1-0.2-0.1c0.2-0.1,0.3-0.2,0.7-0.4
		c-0.4,0-0.6,0-0.7,0c-0.3,0.1-0.7,0.4-1,0.4c-0.4-0.1-0.8-0.2-1.1,0.1c-0.7-0.4-1.2-0.1-1.8,0.3c-0.1,0.1-0.3,0-0.5,0l-1.5,0
		c-0.4-0.7-0.8-1-1.5-0.6c-0.5,0.2-0.7,0.1-1.1,0c-0.3-0.1-0.7-0.1-1-0.1c-0.2,0-0.5,0.1-0.7,0.2c-0.2,0.1-0.4,0.4-0.5,0.4
		c-0.5-0.1-0.8-0.1-1.1-0.2c-0.1,0-0.2-0.1-0.3-0.2c-0.3,0-0.6-0.1-0.9,0.3c-0.3,0.3-0.6-0.4-0.9,0c-0.1,0.1-0.2-0.2-0.4-0.1
		c-0.8,0.3-1.6,0.2-2.3-0.3c-0.1,0.1-0.3,0.3-0.4,0.4c-0.4,0-0.7-0.1-1.1-0.1c-0.3,0-0.5,0.1-0.8,0.3c-0.3,0.2-0.4-0.4-0.7-0.1
		c-0.1,0.1-0.4-0.1-0.8-0.2c0.3,0.5,0.6,0.8,0.3,1.2c-0.1-0.1-0.2-0.1-0.3-0.2c-0.1,0.2-0.1,0.3-0.2,0.4c-0.5-0.4-1-0.8-1.6-1.2
		c0,0.5-0.3,0.6-0.6,0.8c0,0,0,0.1,0,0.1c-0.1,0.2-0.2,0.4-0.3,0.2c-0.1,0.1-0.1-0.2-0.1-0.4c0,0,0-0.1,0.1-0.1
		c0-0.4-0.1-0.6-0.2-0.8c-0.2,0.3-0.4,0-0.6,0.1c0,0.1-0.1,0.3-0.1,0.4c-0.2-0.3-0.4-0.5-0.6-0.8c-0.2,0.3-0.7,0.2-0.6,0.7l-0.3-0.1
		c-0.1,0-0.3-0.1-0.5-0.1c0.3,0.6,0.3,0.6-0.1,0.7l-0.2-1c-0.3,0.1-0.3,0.3-0.4,0.4c-0.1,0.1-0.3,0.4-0.4,0.4
		c-0.5-0.1-1-0.1-1.3-0.4c-0.5-0.4-0.8-0.1-1.2-0.1c-0.1,0-0.4,0.1-0.4,0c-0.2-0.5-0.4,0.3-0.7-0.1c-0.1-0.1-0.6-0.1-0.9-0.1
		c-0.3,0-0.6,0-0.9,0c-0.1-0.2-0.1-0.4-0.1-0.4c-0.5,0.1-0.9,0.2-1.4,0.3c-0.1,0-0.3,0.1-0.4,0.1c-0.5-0.2-1-0.4-1.6-0.6
		c-0.3,0.2-0.7,0.5-1,0.8c0,0-0.1,0-0.2,0.1c-0.1-0.2-0.1-0.3-0.2-0.4c-0.2,0.2-0.4,0.3-0.5,0.5c-0.3-0.3-0.6-0.5-0.8,0
		c0.1,0,0.1,0.1,0.2,0.1c-0.1,0-0.1,0.1-0.1,0c0,0-0.1-0.1-0.1-0.2c0,0,0.1,0,0.1,0c-0.6-0.2-0.7,0.6-1.2,0.5
		c-0.1-0.1-0.2-0.3-0.3-0.5c-0.1,0.2-0.1,0.3-0.2,0.5c-1-0.4-1.8-0.4-2.5-0.1l-0.2-0.5c0,0,0,0-0.1,0l0.1,2.5l-0.1-2.4
		c-0.2,0.1-0.4,0.3-0.8,0.6c-0.2,0.2-0.4,0.2-0.7,0.3c0-0.2,0.1-0.3,0.2-0.4c0.1-0.1,0.1-0.2,0.2-0.4c-0.1,0-0.4-0.1-0.4-0.1
		c-0.2,0.3-0.4-0.1-0.5,0c-0.1,0.2-0.2,0.4-0.3,0.6c0,0-0.1,0.1-0.2,0.1c-0.2-0.2-0.4-0.5-0.6-0.7c-0.7,0.1-0.8,0.6-1.1,0.9
		c0,0-0.1,0-0.2,0c0-0.2-0.1-0.4-0.1-0.7c-0.2,0.3-0.4,0.5-0.5,0.8l-0.2-0.1c0.1-0.3,0.2-0.6,0.3-1c-0.3,0.2-0.4,0.2-0.5,0.3
		c0.1,0.4-0.2,0.6-0.6,0.8c-0.3-0.3-0.5-0.6-0.8-1c-1.2,0.2-1.2,0.2-1.4-0.2c-0.5,0-1.1,0.2-1.6,0c-0.5-0.2-0.9,0-1.3,0.1
		c-0.4,0.2-0.8,0.2-1.1,0.2c-0.2,0-0.4,0.2-0.7,0.2c-0.2,0-0.5-0.1-0.7-0.1c-0.3,0-0.7,0-1,0c-0.3,0-0.7-0.1-0.8,0.1
		c-0.3,0.3-0.6-0.2-0.8,0c-0.2,0.1-0.3,0.3-0.4,0.5c0-0.1-0.1-0.2-0.1-0.3c0-0.1-0.1-0.3-0.1-0.4c-0.7-0.1-0.3,0.5-0.5,0.7
		c-0.5,0-0.9,0-1.4,0c-0.2-0.5-0.5-0.5-0.5-0.3c0,0.5-0.3,0.3-0.6,0.4c-0.1,0-0.1,0.1-0.1,0.1c0.1,0.2,0.1,0.4,0.3,0.7
		c-0.4-0.2-0.6-0.3-0.8-0.3c0,0.2,0,0.5,0,0.8c-0.5-0.3-0.8-0.5-1.2-0.7c-0.3,0.2-0.6,0.4-1,0.7c-0.1-0.1-0.1-0.3-0.2-0.4
		c-0.3,0.2-0.6,0.5-0.9,0.8l0,0c0,0-0.1,0.1-0.1,0c-0.1,0.1-0.2,0-0.1,0c0-0.1,0.1-0.1,0.1-0.1l0.1,0c0.1-0.4,0-0.7,0.3-0.9
		c0,0-0.1-0.2-0.1-0.4c-0.1,0.1-0.3,0.1-0.3,0.2c0,0.4-0.3,0.3-0.5,0.3l-0.2,0.2l-0.1-0.2c-0.2-0.3-0.8,0-0.8-0.5
		c-0.4-0.1-0.7-0.6-1.3-0.2c-0.3,0.2-0.7,0.1-1,0.2c0,0-0.1-0.1-0.2-0.1c0.2-0.1,0.3-0.2,0.7-0.4c-0.4,0-0.6,0-0.7,0
		c-0.3,0.1-0.7,0.4-1,0.4c-0.4-0.1-0.8-0.2-1.1,0.1c-0.7-0.4-1.2-0.1-1.8,0.3c-0.1,0.1-0.3,0-0.5,0l-1.5,0c-0.4-0.7-0.8-1-1.5-0.6
		c-0.5,0.2-0.7,0.1-1.1,0c-0.3-0.1-0.7-0.1-1-0.1c-0.2,0-0.5,0.1-0.7,0.2c-0.2,0.1-0.4,0.4-0.5,0.4c-0.5-0.1-0.8-0.1-1.1-0.2
		c-0.1,0-0.2-0.1-0.3-0.2c-0.3,0-0.6,0-0.9,0.3c-0.3,0.3-0.6-0.4-0.9,0c-0.1,0.1-0.2-0.2-0.4-0.1c-0.8,0.3-1.6,0.2-2.3-0.3
		c-0.1,0.1-0.3,0.3-0.4,0.4c-0.4,0-0.7-0.1-1.1-0.1c-0.3,0-0.5,0.1-0.7,0.3c-0.3,0.2-0.4-0.4-0.7-0.1c-0.1,0.1-0.4-0.1-0.8-0.2
		c0.3,0.5,0.6,0.8,0.3,1.2c-0.1-0.1-0.2-0.1-0.3-0.2c-0.1,0.2-0.1,0.3-0.2,0.4c-0.5-0.4-1-0.7-1.6-1.2c0,0.5-0.3,0.6-0.6,0.8
		c0,0,0,0.1,0,0.1c-0.1,0.2-0.2,0.4-0.3,0.2c-0.1,0.1-0.1-0.2-0.1-0.4c0,0,0-0.1,0.1-0.1c0-0.4-0.1-0.6-0.2-0.8
		c-0.2,0.3-0.4,0-0.6,0.1c0,0.1-0.1,0.3-0.1,0.4c-0.2-0.3-0.4-0.5-0.6-0.8c-0.2,0.3-0.7,0.2-0.6,0.7l-0.3-0.1c-0.1,0-0.3,0-0.5-0.1
		c0.3,0.6,0.3,0.6-0.1,0.7l-0.2-1c-0.3,0.1-0.3,0.3-0.4,0.4c-0.1,0.1-0.3,0.4-0.4,0.4c-0.5-0.1-1-0.1-1.3-0.4
		c-0.5-0.4-0.8-0.1-1.2-0.1c-0.1,0-0.4,0.1-0.4,0c-0.2-0.4-0.4,0.3-0.7-0.1c-0.1-0.1-0.6-0.1-0.9-0.1c-0.3,0-0.6,0-0.9,0
		c-0.1-0.2-0.1-0.4-0.1-0.4c-0.5,0.1-0.9,0.2-1.4,0.3c-0.1,0-0.3,0.1-0.4,0.1c-0.5-0.2-1-0.4-1.6-0.6c-0.3,0.2-0.6,0.5-1,0.8
		c0,0-0.1,0-0.2,0.1c-0.1-0.2-0.1-0.3-0.2-0.4c-0.2,0.2-0.4,0.3-0.5,0.5c-0.3-0.3-0.6-0.5-0.8,0c0.1,0,0.1,0.1,0.2,0.1
		c-0.1,0-0.1,0.1-0.1,0c0,0-0.1-0.1-0.1-0.2c0,0,0.1,0,0.1,0c-0.6-0.2-0.7,0.6-1.2,0.5c-0.1-0.1-0.2-0.3-0.3-0.5
		c-0.1,0.2-0.1,0.3-0.2,0.5c-1-0.4-1.8-0.4-2.5-0.1l-0.2-0.5c0,0,0,0-0.1,0l0,0.1c-0.2,0.1-0.4,0.3-0.8,0.6
		c-0.2,0.2-0.4,0.2-0.6,0.3c0-0.2,0.1-0.3,0.2-0.4c0.1-0.1,0.1-0.2,0.2-0.4c-0.1,0-0.4-0.1-0.4-0.1c-0.2,0.3-0.4-0.1-0.5,0
		c-0.1,0.2-0.2,0.4-0.3,0.6c0,0-0.1,0.1-0.2,0.1c-0.2-0.2-0.4-0.5-0.6-0.7c-0.6,0.1-0.8,0.6-1.1,0.9c0,0-0.1,0-0.2,0
		c0-0.2-0.1-0.4-0.1-0.7c-0.2,0.3-0.3,0.5-0.5,0.8l-0.1-0.1c0.1-0.3,0.2-0.6,0.3-0.9c-0.2,0.2-0.4,0.2-0.5,0.3
		c0.1,0.4-0.2,0.6-0.6,0.8c-0.2-0.3-0.5-0.7-0.7-1c-1.1,0.2-1.1,0.1-1.3-0.3c-0.5,0-1.1,0.1-1.5-0.1c-0.5-0.3-0.9-0.1-1.2,0
		c-0.4,0.1-0.7,0.1-1.1,0.2c-0.2,0-0.4,0.2-0.7,0.1c-0.2,0-0.5-0.2-0.7-0.2c-0.3,0-0.6,0-1-0.1c-0.3,0-0.6-0.1-0.8,0
		c-0.4,0.3-0.5-0.3-0.8-0.1c-0.2,0.1-0.3,0.3-0.5,0.4c0-0.1-0.1-0.2-0.1-0.3c0-0.1,0-0.3,0-0.4c-0.7-0.1-0.3,0.5-0.5,0.6
		c-0.5,0-0.9,0-1.4-0.1c-0.2-0.5-0.4-0.6-0.5-0.3c-0.1,0.5-0.4,0.3-0.6,0.3c-0.1,0-0.1,0.1-0.1,0.1c0.1,0.2,0.1,0.4,0.2,0.8
		c-0.4-0.2-0.6-0.3-0.8-0.4c0,0.2,0,0.5,0,0.8c-0.4-0.3-0.8-0.6-1.1-0.8c-0.3,0.2-0.7,0.4-1,0.6c-0.1-0.1-0.1-0.3-0.2-0.4
		c-0.3,0.2-0.6,0.4-1,0.7l0,0c-0.1,0-0.1,0.1-0.1,0c-0.1,0.1-0.2,0-0.2,0c0-0.1,0.1-0.1,0.1-0.1l0,0.1c0.1-0.4,0-0.7,0.3-0.9
		c0,0-0.1-0.2-0.1-0.4c-0.1,0.1-0.3,0.1-0.3,0.2c0,0.4-0.3,0.2-0.5,0.3l-0.2,0.2l-0.1-0.2c-0.1-0.3-0.8,0-0.8-0.6
		c-0.4-0.2-0.7-0.6-1.3-0.3c-0.3,0.1-0.7,0.1-1.1,0.1c-0.1,0-0.1-0.1-0.2-0.1c0.2-0.1,0.3-0.1,0.8-0.3c-0.4,0-0.6,0-0.8,0
		c-0.4,0.1-0.7,0.4-1.1,0.3c-0.4-0.1-0.8-0.2-1.2,0.1c-0.7-0.4-1.3-0.1-1.9,0.3c-0.1,0.1-0.4,0-0.5,0c-0.5,0-1.1,0-1.6,0.1
		c-0.5-0.7-1-0.9-1.7-0.5c-0.5,0.3-0.8,0.2-1.2,0.1c-0.4-0.1-0.8-0.1-1.1-0.1c-0.3,0-0.5,0.1-0.7,0.3c-0.2,0.2-0.4,0.4-0.5,0.5
		c-0.5,0-0.9,0-1.2,0c-0.1,0-0.3-0.1-0.4-0.2c-0.4,0.1-0.8,0.1-1,0.4c-0.3,0.4-0.8-0.3-1.1,0.2c-0.1,0.1-0.2-0.1-0.5,0
		c-0.9,0.5-1.9,0.7-2.9,0.4c-0.1,0.2-0.3,0.4-0.4,0.5c-0.5,0.1-0.9,0.1-1.3,0.3c-0.3,0.1-0.6,0.3-0.8,0.5c-0.3,0.3-0.6-0.2-0.9,0.2
		c-0.1,0.1-0.5,0.1-1,0.2c0.5,0.3,1,0.5,0.8,1c-0.1,0-0.3,0-0.4-0.1c0,0.2-0.1,0.4-0.1,0.5c-0.7-0.1-1.5-0.2-2.4-0.2
		c0.2,0.5-0.1,0.7-0.3,1.1c0,0,0.1,0,0.1,0.1c0,0.2-0.1,0.5-0.3,0.4c-0.1,0.1-0.2-0.1-0.3-0.3c0,0,0-0.1,0.1-0.2
		c-0.3-0.4-0.4-0.5-0.6-0.5c-0.1,0.4-0.5,0.2-0.7,0.5c0,0.1,0.1,0.3,0.1,0.4c-0.4-0.1-0.7-0.2-1-0.2c0,0.4-0.7,0.7-0.4,1
		c-0.1,0.1-0.2,0.1-0.3,0.2c-0.2,0.1-0.3,0.2-0.6,0.3c0.7,0.2,0.7,0.2,0.3,0.7L34,21.6c-0.2,0.3-0.2,0.5-0.2,0.7
		c-0.1,0.2-0.1,0.6-0.3,0.7c-0.5,0.3-1.1,0.8-1.6,0.9c-0.8,0.1-0.9,0.7-1.3,1.1c-0.1,0.1-0.3,0.4-0.4,0.4c-0.5-0.2-0.2,0.7-0.7,0.6
		c-0.2,0-0.6,0.6-0.9,0.9c-0.3,0.3-0.5,0.7-0.7,1c-0.2,0-0.4-0.1-0.4-0.1c-0.3,0.6-0.6,1.2-0.8,1.8c-0.1,0.2-0.1,0.4-0.3,0.5
		c-0.5,0.5-1,1-1.5,1.5c0,0.5,0,1,0.1,1.6c0,0.1,0,0.1,0,0.2c-0.2,0-0.3,0-0.5,0c0.1,0.3,0.1,0.6,0.2,0.8c-0.4,0.3-0.7,0.6-0.4,1
		c0.1-0.1,0.2-0.1,0.2-0.2c0,0.1,0,0.2,0,0.2c-0.1,0-0.1,0-0.2,0c0,0,0-0.1,0-0.1c-0.5,0.6,0.3,1-0.1,1.6c-0.2,0-0.3,0.1-0.6,0.1
		c0.2,0.1,0.3,0.2,0.4,0.4c-0.7,1-1.1,2-1,2.9l-0.5,0.1c0,0,0,0.1,0,0.1l0,0c0,0.2,0.1,0.5,0.3,1c0.1,0.2,0.1,0.5,0.1,0.8
		c-0.2-0.1-0.3-0.2-0.4-0.4c-0.1-0.1-0.2-0.2-0.3-0.3c-0.1,0.2-0.2,0.4-0.2,0.5c0.3,0.3-0.2,0.4-0.1,0.6c0.1,0.2,0.3,0.3,0.5,0.5
		c0,0,0,0.2,0,0.3c-0.3,0.2-0.6,0.3-0.8,0.5c-0.1,0.8,0.4,1.1,0.7,1.5c0,0,0,0.1,0,0.2c-0.2,0-0.4,0-0.7,0c0.3,0.3,0.5,0.5,0.7,0.7
		l-0.1,0.2c-0.3-0.1-0.5-0.3-0.9-0.4c0.1,0.3,0.2,0.5,0.2,0.6c0.4,0,0.6,0.3,0.7,0.8c-0.4,0.3-0.7,0.5-1.1,0.8c0,1.3,0,1.4-0.4,1.6
		c-0.1,0.6,0.1,1.3-0.2,1.7c-0.3,0.6-0.1,1,0,1.4c0.1,0.4,0.1,0.8,0.2,1.3c0,0.2,0.2,0.5,0.1,0.7c0,0.3-0.2,0.5-0.2,0.8
		c0,0.4,0,0.7,0,1.1c0,0.3-0.1,0.7,0.1,0.9c0.3,0.4-0.3,0.6-0.1,0.9c0.1,0.2,0.3,0.3,0.5,0.5c-0.1,0-0.2,0.1-0.3,0.1
		c-0.1,0-0.3,0.1-0.4,0.1c-0.1,0.7,0.5,0.3,0.7,0.5c0,0.5,0,1,0,1.5c-0.5,0.2-0.5,0.5-0.3,0.5c0.5,0,0.3,0.4,0.4,0.6
		c0,0.1,0.1,0.1,0.1,0.1c0.2-0.1,0.4-0.1,0.7-0.3c-0.2,0.4-0.2,0.6-0.3,0.8c0.2,0,0.5,0,0.8,0c-0.3,0.5-0.5,0.9-0.7,1.2
		c0.2,0.3,0.5,0.7,0.7,1c-0.1,0.1-0.3,0.1-0.4,0.2c0.2,0.3,0.5,0.6,0.8,0.9l0,0c0,0,0.1,0.1,0,0.1c0.1,0.1,0.1,0.2,0,0.2
		c-0.1,0-0.1-0.1-0.2-0.1l0-0.1c-0.4-0.1-0.7,0.1-0.9-0.2c0,0-0.2,0.1-0.4,0.2c0.1,0.1,0.1,0.3,0.2,0.3c0.4,0,0.3,0.3,0.3,0.5
		l0.2,0.2l-0.2,0.1c-0.3,0.2,0,0.8-0.5,0.8c-0.1,0.4-0.5,0.8-0.2,1.3c0.2,0.3,0.2,0.7,0.2,1.1c0,0-0.1,0.1-0.1,0.2
		c-0.1-0.2-0.2-0.3-0.4-0.7c0,0.4,0,0.6,0.1,0.7c0.1,0.3,0.4,0.7,0.4,1c0,0.4-0.2,0.8,0.2,1.1c-0.4,0.7,0,1.3,0.4,1.8
		c0.1,0.1,0,0.3,0.1,0.5l0.2,1.5c-0.7,0.5-0.9,0.9-0.5,1.6c0.3,0.5,0.2,0.7,0.1,1.1c-0.1,0.3-0.1,0.7-0.1,1c0,0.2,0.1,0.5,0.2,0.7
		c0.2,0.2,0.4,0.4,0.5,0.5c0,0.5,0,0.8-0.1,1.1c0,0.1-0.1,0.2-0.2,0.4c0,0.3,0,0.7,0.3,0.9c0.4,0.3-0.4,0.6,0.1,0.9
		c0.1,0.1-0.2,0.2,0,0.5c0.4,0.8,0.4,1.6,0,2.4c0.2,0.1,0.3,0.3,0.4,0.3c0,0.4,0,0.7,0,1.1c0,0.3,0.2,0.5,0.3,0.7
		c0.2,0.3-0.4,0.5,0,0.7c0.1,0.1,0,0.4-0.1,0.8c0.4-0.3,0.7-0.7,1.2-0.4c-0.1,0.1-0.1,0.2-0.2,0.3c0.2,0.1,0.3,0.1,0.5,0.1
		c-0.3,0.6-0.6,1.1-1,1.8c0.5-0.1,0.6,0.2,0.9,0.5c0,0,0.1,0,0.1,0c0.2,0,0.4,0.2,0.3,0.3c0.1,0.1-0.1,0.2-0.4,0.2
		c0,0-0.1,0-0.1-0.1c-0.4,0.1-0.6,0.2-0.8,0.3c0.3,0.1,0,0.4,0.2,0.6c0.1,0,0.3,0,0.4,0.1c-0.2,0.2-0.5,0.4-0.7,0.6
		c0.4,0.1,0.3,0.7,0.7,0.5l0,0.3c0,0.1,0,0.3,0,0.5c0.5-0.4,0.6-0.4,0.7,0.1l-0.9,0.3c0.1,0.2,0.3,0.3,0.4,0.4
		c0.2,0.1,0.4,0.3,0.4,0.4c0,0.5,0,1-0.2,1.3c-0.4,0.5,0,0.8,0,1.2c0,0.1,0.1,0.4,0.1,0.4c-0.4,0.2,0.4,0.4,0,0.7
		c-0.1,0.1,0,0.6,0,0.9c0,0.3,0.1,0.6,0.1,0.9c-0.2,0.1-0.4,0.2-0.4,0.2c0.2,0.4,0.3,0.9,0.5,1.4c0,0.1,0.1,0.3,0.1,0.4
		c-0.1,0.5-0.3,1-0.4,1.6c0.3,0.3,0.6,0.6,0.9,0.9c0,0,0,0.1,0.1,0.2c-0.1,0.1-0.3,0.1-0.4,0.2c0.2,0.2,0.4,0.3,0.5,0.4
		c-0.2,0.3-0.4,0.6,0.1,0.8c0-0.1,0.1-0.1,0.1-0.2c0,0,0.1,0.1,0.1,0.1c0,0-0.1,0.1-0.2,0.1c0,0,0-0.1,0-0.1
		c-0.2,0.6,0.7,0.6,0.6,1.1c-0.1,0.1-0.3,0.2-0.5,0.3c0.2,0,0.3,0.1,0.5,0.1c-0.3,1-0.3,1.7,0,2.4l-0.5,0.2c0,0,0,0,0,0.1l0.1,0
		c0.1,0.2,0.3,0.4,0.6,0.8c0.2,0.2,0.2,0.5,0.3,0.7c-0.2,0-0.3-0.1-0.5-0.2c-0.1-0.1-0.2-0.1-0.4-0.2c0,0.2-0.1,0.5,0,0.5
		c0.4,0.2-0.1,0.5,0.1,0.6c0.2,0.2,0.4,0.2,0.6,0.4c0.1,0,0.1,0.2,0.1,0.3c-0.2,0.3-0.4,0.5-0.6,0.8c0.2,0.8,0.7,1,1.1,1.4
		c0,0,0,0.1,0.1,0.2c-0.2,0.1-0.4,0.2-0.6,0.3c0.4,0.2,0.6,0.4,0.9,0.6c0,0.1,0,0.2,0,0.2c-0.3-0.1-0.6-0.1-1-0.2
		c0.2,0.3,0.4,0.5,0.5,0.7c0.4-0.2,0.7,0.1,1,0.7c-0.2,0.5-0.3,1.1-0.4,1.7c1,2,1.1,2,1,2.6c0.5,0.9,1.3,1.8,1.7,2.5
		c0.5,0.9,1.2,1.4,1.8,1.7c0.7,0.4,1.2,0.8,1.9,1.2c0.4,0.2,0.8,0.3,1.2,0.5c0.4,0.2,0.8,0.6,1.2,0.8c0.6,0.3,1.2,0.5,1.8,0.7
		c0.5,0.2,1.2,0.4,1.6,0.4c0.4-0.1,0.6,0,0.9,0.2c0.2,0.1,0.4,0.2,0.6,0.2c0.3-0.1,0.5-0.2,0.7-0.4c0,0.1,0.1,0.2,0.1,0.3
		c0,0.1,0,0.3,0,0.4c1,0.2,0.5-0.4,0.8-0.6c0.6,0.1,1.3,0.1,1.8,0.1c0.3,0.5,0.6,0.6,0.6,0.3c0.1-0.5,0.4-0.3,0.7-0.4
		c0.1,0,0.1-0.1,0.1-0.1c-0.1-0.2-0.1-0.4-0.3-0.8c0.4,0.2,0.7,0.3,0.9,0.4c0-0.2,0-0.5,0-0.8c0.5,0.3,0.8,0.5,1.2,0.7
		c0.3-0.2,0.6-0.4,1-0.7c0.1,0.1,0.1,0.3,0.2,0.4c0.3-0.2,0.6-0.5,0.9-0.8l0,0c0,0,0.1-0.1,0.1,0c0.1-0.1,0.2,0,0.1,0
		c0,0.1-0.1,0.1-0.1,0.1l-0.1,0c-0.1,0.4,0,0.7-0.3,0.9c0,0,0.1,0.2,0.1,0.4c0.1-0.1,0.3-0.1,0.3-0.2c0-0.4,0.3-0.3,0.5-0.3l0.2-0.2
		l0.1,0.2c0.2,0.3,0.8,0,0.8,0.6c0.4,0.1,0.7,0.6,1.3,0.3c0.3-0.2,0.7-0.1,1.1-0.1c0,0,0.1,0.1,0.2,0.1c-0.2,0.1-0.3,0.2-0.7,0.4
		c0.4,0,0.6,0,0.7,0c0.3-0.1,0.7-0.4,1-0.3c0.4,0.1,0.8,0.2,1.1-0.1c0.7,0.4,1.2,0.1,1.8-0.3c0.1-0.1,0.3,0,0.5,0l1.5,0
		c0.4,0.7,0.8,1,1.5,0.6c0.5-0.2,0.7-0.1,1.1,0c0.3,0.1,0.7,0.2,1,0.2c0.2,0,0.5-0.1,0.7-0.2c0.2-0.1,0.4-0.4,0.5-0.4
		c0.5,0.1,0.8,0.1,1.1,0.2c0.1,0,0.2,0.1,0.3,0.2c0.3,0,0.6,0.1,0.9-0.2c0.3-0.3,0.6,0.4,0.9,0c0.1-0.1,0.2,0.2,0.4,0.1
		c0.8-0.3,1.6-0.2,2.3,0.3c0.1-0.1,0.3-0.3,0.4-0.4c0.4,0,0.7,0.1,1.1,0.1c0.3,0,0.5-0.1,0.8-0.3c0.3-0.2,0.4,0.4,0.7,0.1
		c0.1-0.1,0.4,0.1,0.8,0.2c-0.3-0.5-0.6-0.8-0.3-1.2c0.1,0.1,0.2,0.1,0.3,0.2c0.1-0.2,0.1-0.3,0.2-0.4c0.5,0.4,1,0.8,1.6,1.2
		c0-0.5,0.3-0.6,0.6-0.8c0,0,0-0.1,0-0.1c0.1-0.2,0.2-0.4,0.3-0.2c0.1-0.1,0.1,0.2,0.1,0.4c0,0,0,0.1-0.1,0.1c0,0.4,0.1,0.6,0.2,0.8
		c0.2-0.3,0.4,0,0.6-0.1c0-0.1,0.1-0.3,0.1-0.4c0.2,0.3,0.4,0.5,0.6,0.8c0.2-0.3,0.7-0.2,0.6-0.7l0.3,0.1c0.1,0,0.3,0.1,0.5,0.1
		c-0.3-0.6-0.3-0.6,0.1-0.7l0.2,1c0.3-0.1,0.3-0.3,0.4-0.4c0.1-0.1,0.3-0.4,0.5-0.3c0.4,0.1,1,0.1,1.3,0.4c0.4,0.5,0.8,0.1,1.2,0.1
		c0.1,0,0.4-0.1,0.4,0c0.2,0.5,0.4-0.3,0.7,0.1c0.1,0.1,0.6,0.1,0.9,0.1c0.3,0,0.6,0,0.9,0c0.1,0.2,0.1,0.4,0.1,0.4
		c0.5-0.1,0.9-0.2,1.4-0.3c0.1,0,0.3-0.1,0.4-0.1c0.5,0.2,1,0.4,1.6,0.6c0.3-0.2,0.7-0.5,1-0.8c0,0,0.1,0,0.2-0.1
		c0.1,0.2,0.1,0.3,0.2,0.4c0.2-0.2,0.4-0.3,0.5-0.5c0.3,0.3,0.6,0.5,0.8,0c-0.1,0-0.1-0.1-0.2-0.1c0.1,0,0.1-0.1,0.1,0
		c0,0,0.1,0.1,0.1,0.2c0,0-0.1,0-0.1,0c0.6,0.2,0.7-0.6,1.2-0.5c0.1,0.1,0.2,0.3,0.3,0.5c0.1-0.2,0.1-0.3,0.2-0.5
		c1,0.4,1.8,0.4,2.5,0.1l0.2,0.5c0,0,0,0,0.1,0l0-0.1c0.2-0.1,0.4-0.2,0.8-0.6c0.2-0.2,0.4-0.2,0.7-0.3c0,0.2-0.2,0.3-0.2,0.4
		c-0.1,0.1-0.1,0.2-0.2,0.4c0.1,0,0.4,0.1,0.4,0.1c0.2-0.3,0.4,0.1,0.5,0c0.1-0.2,0.2-0.4,0.4-0.6c0,0,0.1-0.1,0.2-0.1
		c0.2,0.2,0.4,0.5,0.6,0.7c0.7-0.1,0.8-0.5,1.2-0.9c0,0,0.1,0,0.2,0c0,0.2,0.1,0.4,0.1,0.7c0.2-0.3,0.4-0.5,0.5-0.8
		c0.1,0,0.1,0,0.2,0.1c-0.1,0.3-0.2,0.6-0.3,1c0.3-0.2,0.4-0.2,0.5-0.3c-0.1-0.4,0.2-0.6,0.6-0.8c0.3,0.3,0.5,0.6,0.8,1
		c1.2-0.2,1.2-0.2,1.4,0.2c0.5,0,1.1-0.2,1.6,0c0.5,0.2,0.9,0,1.3-0.1c0.4-0.1,0.8-0.2,1.1-0.2c0.2,0,0.4-0.2,0.7-0.2
		c0.2,0,0.5,0.1,0.7,0.2c0.3,0,0.7,0,1,0c0.3,0,0.7,0.1,0.8-0.1c0.3-0.3,0.6,0.3,0.8,0c0.2-0.1,0.3-0.3,0.4-0.5
		c0,0.1,0.1,0.2,0.1,0.3c0,0.1,0.1,0.3,0.1,0.4c0.7,0.1,0.3-0.5,0.5-0.7c0.5,0,0.9,0,1.4,0c0.2,0.5,0.5,0.6,0.5,0.3
		c0-0.5,0.3-0.3,0.6-0.4c0.1,0,0.1-0.1,0.1-0.1c-0.1-0.2-0.1-0.4-0.2-0.7c0.4,0.2,0.6,0.3,0.8,0.3c0-0.2,0-0.5,0-0.8
		c0.5,0.3,0.8,0.5,1.2,0.7c0.3-0.2,0.6-0.4,1-0.7c0.1,0.1,0.1,0.3,0.2,0.4c0.3-0.2,0.6-0.5,0.9-0.8c0,0,0,0,0,0c0,0,0.1-0.1,0.1,0
		c0.1-0.1,0.2,0,0.1,0c0,0.1-0.1,0.1-0.1,0.1c0,0,0,0-0.1,0c-0.1,0.4,0,0.7-0.3,0.9c0,0,0.1,0.2,0.1,0.4c0.1-0.1,0.3-0.1,0.3-0.2
		c0-0.4,0.3-0.3,0.5-0.3c0.1-0.1,0.1-0.1,0.2-0.2c0,0.1,0.1,0.1,0.1,0.2c0.2,0.3,0.8,0,0.8,0.6c0.4,0.1,0.7,0.6,1.3,0.3
		c0.3-0.2,0.7-0.1,1.1-0.1c0,0,0.1,0.1,0.2,0.1c-0.2,0.1-0.3,0.2-0.7,0.4c0.4,0,0.6,0,0.7,0c0.3-0.1,0.7-0.4,1-0.3
		c0.4,0.1,0.8,0.2,1.1-0.1c0.7,0.4,1.2,0.1,1.8-0.3c0.1-0.1,0.3,0,0.5,0c0.5,0,1,0,1.5,0c0.4,0.7,0.8,1,1.5,0.6
		c0.5-0.2,0.7-0.1,1.1,0c0.3,0.1,0.7,0.2,1,0.2c0.2,0,0.5-0.1,0.7-0.2c0.2-0.1,0.4-0.4,0.5-0.4c0.5,0.1,0.8,0.1,1.1,0.2
		c0.1,0,0.2,0.1,0.3,0.2c0.3,0,0.6,0.1,0.9-0.2c0.3-0.3,0.6,0.4,0.9,0c0.1-0.1,0.2,0.2,0.4,0.1c0.8-0.3,1.6-0.2,2.3,0.3
		c0.1-0.1,0.3-0.3,0.4-0.4c0.4,0,0.7,0.1,1.1,0.1c0.3,0,0.5-0.1,0.8-0.3c0.3-0.2,0.4,0.4,0.7,0.1c0.1-0.1,0.4,0.1,0.8,0.2
		c-0.3-0.5-0.6-0.8-0.3-1.2c0.1,0.1,0.2,0.1,0.3,0.2c0.1-0.2,0.1-0.3,0.2-0.4c0.5,0.4,1,0.8,1.6,1.2c0-0.5,0.3-0.6,0.6-0.8
		c0,0,0-0.1,0-0.1c0.1-0.2,0.2-0.4,0.3-0.2c0.1-0.1,0.1,0.2,0.1,0.4c0,0,0,0.1-0.1,0.1c0,0.4,0.1,0.6,0.2,0.8c0.2-0.3,0.4,0,0.6-0.1
		c0-0.1,0.1-0.3,0.1-0.4c0.2,0.3,0.4,0.5,0.6,0.8c0.2-0.3,0.7-0.2,0.6-0.7c0.1,0,0.2,0,0.3,0.1c0.1,0,0.3,0.1,0.5,0.1
		c-0.3-0.6-0.3-0.6,0.1-0.7c0.1,0.3,0.1,0.6,0.2,1c0.3-0.1,0.3-0.3,0.4-0.4c0.1-0.1,0.3-0.4,0.5-0.3c0.4,0.1,1,0.1,1.3,0.4
		c0.4,0.5,0.8,0.1,1.2,0.1c0.1,0,0.4-0.1,0.4,0c0.2,0.5,0.4-0.3,0.7,0.1c0.1,0.1,0.6,0.1,0.9,0.1c0.3,0,0.6,0,0.9,0
		c0.1,0.2,0.1,0.4,0.1,0.4c0.5-0.1,1-0.2,1.4-0.3c0.1,0,0.3-0.1,0.4-0.1c0.5,0.2,1,0.4,1.6,0.6c0.3-0.2,0.7-0.5,1-0.8
		c0,0,0.1,0,0.2-0.1c0.1,0.2,0.1,0.3,0.2,0.4c0.2-0.2,0.4-0.3,0.5-0.5c0.3,0.3,0.6,0.5,0.8,0c-0.1,0-0.1-0.1-0.2-0.1
		c0.1,0,0.1-0.1,0.1,0c0,0,0.1,0.1,0.1,0.2c0,0-0.1,0-0.1,0c0.6,0.2,0.7-0.6,1.2-0.5c0.1,0.1,0.2,0.3,0.3,0.5
		c0.1-0.2,0.1-0.3,0.2-0.5c1,0.4,1.8,0.4,2.5,0.1c0.1,0.2,0.2,0.3,0.2,0.5c0,0,0,0,0.1,0l0-0.1c0.2-0.1,0.4-0.2,0.8-0.6
		c0.2-0.2,0.4-0.2,0.7-0.3c0,0.2-0.2,0.3-0.2,0.4c-0.1,0.1-0.1,0.2-0.2,0.4c0.1,0,0.4,0.1,0.4,0.1c0.2-0.3,0.4,0.1,0.5,0
		c0.1-0.2,0.2-0.4,0.4-0.6c0,0,0.1-0.1,0.2-0.1c0.2,0.2,0.4,0.5,0.6,0.7c0.7-0.1,0.8-0.5,1.2-0.9c0,0,0.1,0,0.2,0
		c0,0.2,0.1,0.4,0.1,0.7c0.2-0.3,0.4-0.5,0.5-0.8c0.1,0,0.1,0,0.2,0.1c-0.1,0.3-0.2,0.6-0.3,1c0.3-0.2,0.4-0.2,0.5-0.3
		c-0.1-0.4,0.2-0.6,0.6-0.8c0.3,0.3,0.5,0.6,0.8,1c1.2-0.2,1.2-0.2,1.4,0.2c0.5,0,1.1-0.2,1.6,0c0.5,0.2,0.9,0,1.3-0.1
		c0.4-0.1,0.8-0.2,1.1-0.2c0.2,0,0.4-0.2,0.7-0.2c0.2,0,0.5,0.1,0.7,0.2c0.3,0,0.7,0,1,0c0.3,0,0.7,0.1,0.8-0.1
		c0.3-0.3,0.6,0.3,0.8,0c0.2-0.1,0.3-0.3,0.4-0.5c0,0.1,0.1,0.2,0.1,0.3c0,0.1,0.1,0.3,0.1,0.4c0.7,0.1,0.3-0.5,0.5-0.7
		c0.5,0,0.9,0,1.4,0c0.2,0.5,0.5,0.6,0.5,0.3c0-0.5,0.3-0.3,0.6-0.4c0.1,0,0.1-0.1,0.1-0.1c-0.1-0.2-0.1-0.4-0.2-0.7
		c0.4,0.2,0.6,0.3,0.8,0.3c0-0.2,0-0.5,0-0.8c0.5,0.3,0.8,0.5,1.2,0.7c0.3-0.2,0.6-0.4,1-0.7c0.1,0.1,0.1,0.3,0.2,0.4
		c0.3-0.2,0.6-0.5,0.9-0.8c0,0,0,0,0,0c0,0,0.1-0.1,0.1,0c0.1-0.1,0.2,0,0.1,0c0,0.1-0.1,0.1-0.1,0.1c0,0,0,0-0.1,0
		c-0.1,0.4,0,0.7-0.3,0.9c0,0,0.1,0.2,0.1,0.4c0.1-0.1,0.3-0.1,0.3-0.2c0-0.4,0.3-0.3,0.5-0.3c0.1-0.1,0.1-0.1,0.2-0.2
		c0,0.1,0.1,0.1,0.1,0.2c0.2,0.3,0.8,0,0.8,0.6c0.4,0.1,0.7,0.6,1.3,0.3c0.3-0.2,0.7-0.1,1.1-0.1c0,0,0.1,0.1,0.2,0.1
		c-0.2,0.1-0.3,0.2-0.7,0.4c0.4,0,0.6,0,0.7,0c0.3-0.1,0.7-0.4,1-0.3c0.4,0.1,0.8,0.2,1.1-0.1c0.7,0.4,1.2,0.1,1.8-0.3
		c0.1-0.1,0.3,0,0.5,0c0.5,0,1,0,1.5,0c0.4,0.7,0.8,1,1.5,0.6c0.5-0.2,0.7-0.1,1.1,0c0.3,0.1,0.7,0.2,1,0.2c0.2,0,0.5-0.1,0.7-0.2
		c0.2-0.1,0.4-0.4,0.5-0.4c0.5,0.1,0.8,0.1,1.1,0.2c0.1,0,0.2,0.1,0.3,0.2c0.3,0,0.6,0.1,0.9-0.2c0.3-0.3,0.6,0.4,0.9,0
		c0.1-0.1,0.2,0.2,0.4,0.1c0.8-0.3,1.6-0.2,2.3,0.3c0.1-0.1,0.3-0.3,0.4-0.4c0.4,0,0.7,0.1,1.1,0.1c0.3,0,0.5-0.1,0.8-0.3
		c0.3-0.2,0.4,0.4,0.7,0.1c0.1-0.1,0.4,0.1,0.8,0.2c-0.3-0.5-0.6-0.8-0.3-1.2c0.1,0.1,0.2,0.1,0.3,0.2c0.1-0.2,0.1-0.3,0.2-0.4
		c0.5,0.4,1,0.8,1.6,1.2c0-0.5,0.3-0.6,0.6-0.8c0,0,0-0.1,0-0.1c0.1-0.2,0.2-0.4,0.3-0.2c0.1-0.1,0.1,0.2,0.1,0.4c0,0,0,0.1-0.1,0.1
		c0,0.4,0.1,0.6,0.2,0.8c0.2-0.3,0.4,0,0.6-0.1c0-0.1,0.1-0.3,0.1-0.4c0.2,0.3,0.4,0.5,0.6,0.8c0.2-0.3,0.7-0.2,0.6-0.7
		c0.1,0,0.2,0,0.3,0.1c0.1,0,0.3,0.1,0.5,0.1c-0.3-0.6-0.3-0.6,0.1-0.7c0.1,0.3,0.1,0.6,0.2,1c0.3-0.1,0.3-0.3,0.4-0.4
		c0.1-0.1,0.3-0.4,0.5-0.3c0.4,0.1,1,0.1,1.3,0.4c0.4,0.5,0.8,0.1,1.2,0.1c0.1,0,0.4-0.1,0.4,0c0.2,0.5,0.4-0.3,0.7,0.1
		c0.1,0.1,0.6,0.1,0.9,0.1c0.3,0,0.6,0,0.9,0c0.1,0.2,0.1,0.4,0.1,0.4c0.5-0.1,1-0.2,1.4-0.3c0.1,0,0.3-0.1,0.4-0.1
		c0.5,0.2,1,0.4,1.6,0.6c0.3-0.2,0.7-0.5,1-0.8c0,0,0.1,0,0.2-0.1c0.1,0.2,0.1,0.3,0.2,0.4c0.2-0.2,0.4-0.3,0.5-0.5
		c0.3,0.3,0.6,0.5,0.8,0c-0.1,0-0.1-0.1-0.2-0.1c0.1,0,0.1-0.1,0.1,0c0,0,0.1,0.1,0.1,0.2c0,0-0.1,0-0.1,0c0.6,0.2,0.7-0.6,1.2-0.5
		c0.1,0.1,0.2,0.3,0.3,0.5c0.1-0.2,0.1-0.3,0.2-0.5c1,0.4,1.8,0.4,2.5,0.1c0.1,0.2,0.2,0.3,0.2,0.5c0,0,0,0,0.1,0l0-0.1
		c0.2-0.1,0.4-0.2,0.8-0.6c0.2-0.2,0.4-0.2,0.7-0.3c0,0.2-0.2,0.3-0.2,0.4c-0.1,0.1-0.1,0.2-0.2,0.4c0.1,0,0.4,0.1,0.4,0.1
		c0.2-0.3,0.4,0.1,0.5,0c0.1-0.2,0.2-0.4,0.4-0.6c0,0,0.1-0.1,0.2-0.1c0.2,0.2,0.4,0.5,0.6,0.7c0.7-0.1,0.8-0.5,1.2-0.9
		c0,0,0.1,0,0.2,0c0,0.2,0.1,0.4,0.1,0.7c0.2-0.3,0.4-0.5,0.5-0.8l0.2,0.1c-0.1,0.3-0.2,0.6-0.3,1c0.3-0.2,0.4-0.2,0.5-0.3
		c-0.1-0.4,0.2-0.6,0.6-0.8c0.3,0.3,0.5,0.6,0.8,1c1.2-0.2,1.2-0.2,1.4,0.2c0.5,0,1.1-0.2,1.6,0c0.5,0.2,1,0,1.4-0.1
		c0.5-0.2,0.9-0.2,1.4-0.3c0.3,0,0.6-0.2,0.9-0.2c0.3,0,0.7,0.1,1.1,0.1c0.5,0,1-0.1,1.6-0.2c0.5-0.1,1.3-0.2,1.5-0.4
		c0.6-0.5,1.1-0.1,1.5-0.4c0.2-0.2,0.4-0.5,0.6-0.7c0.1,0.1,0.2,0.1,0.3,0.2c0.1,0.1,0.2,0.2,0.3,0.3c1.2-0.5,0.3-0.7,0.6-1
		c0.3-0.1,0.6-0.3,0.9-0.5c0.4-0.3,0.9-0.6,1.3-0.9c0.7,0.2,1-0.1,0.9-0.3c-0.2-0.4,0.3-0.7,0.6-1c0.1-0.1,0.1-0.2,0.1-0.2
		c-0.2-0.1-0.4-0.1-0.8-0.3c0.6-0.3,0.9-0.6,1.2-0.8c-0.2-0.2-0.3-0.3-0.6-0.5c0.7-0.4,1.3-0.8,1.8-1.2c0.1-0.6,0.2-1.2,0.3-1.9
		c0.2,0,0.3-0.1,0.5-0.1c0-0.6,0.1-1.1,0-1.8l0,0c0-0.1,0-0.2,0-0.1c0-0.2,0-0.2,0-0.2c0,0.1,0.1,0.1,0.1,0.2l-0.1,0.1
		c0.3,0.2,0.7,0.2,0.7,0.8c0,0.1,0.3,0,0.4-0.1c0-0.2,0.1-0.6,0-0.6c-0.4-0.2-0.1-0.5,0-0.8c0-0.1-0.1-0.2-0.1-0.3l0.2-0.1
		c0.4-0.1,0.3-1.1,0.8-0.9c0.3-0.5,0.8-0.9,0.7-1.7c-0.1-0.4,0.1-1,0.1-1.4c0-0.1,0.1-0.1,0.2-0.2c0,0.2,0.1,0.4,0.2,1
		c0.1-0.6,0.1-0.8,0.1-1c-0.1-0.5-0.3-1-0.2-1.3c0.1-0.5,0.3-1,0-1.4C270.7,109.6,270.4,108.9,270,108.3z M269.1,87.2
		c0,0,0.1,0.1,0.1,0.2c-0.1,0-0.2,0.1-0.3,0.1c0,0-0.1-0.1-0.1-0.2C268.9,87.3,269,87.2,269.1,87.2z M266.9,60.9L267,61
		c0,0-0.1,0.1-0.1,0.1C266.9,61.1,266.9,61,266.9,60.9C266.9,61,266.9,60.9,266.9,60.9z M266.7,64l0.2,0.1c0,0-0.1,0.1-0.1,0.1
		C266.7,64.1,266.6,64.1,266.7,64C266.6,64,266.6,64,266.7,64z M266.4,51.2c0,0.1,0.1,0.1,0.1,0.2c0,0,0,0.1-0.1,0.1L266.4,51.2
		C266.4,51.2,266.4,51.2,266.4,51.2z M21.5,59.8c0-0.1-0.1-0.1-0.1-0.2c0,0,0-0.1,0.1-0.1L21.5,59.8C21.5,59.7,21.5,59.8,21.5,59.8z
		 M22.1,49.4L22,49.2c0,0,0.1-0.1,0.1-0.1C22.1,49.2,22.2,49.2,22.1,49.4C22.2,49.3,22.1,49.3,22.1,49.4z M24.7,95.8
		c0,0-0.1-0.1-0.1-0.1c0.1,0,0.2-0.1,0.3-0.1c0,0,0.1,0.1,0.1,0.2C24.9,95.7,24.8,95.8,24.7,95.8z M28.6,119.2l-0.2-0.1
		c0,0,0-0.1,0.1-0.1c0.1,0,0.1,0,0.2,0.1C28.6,119.2,28.6,119.2,28.6,119.2z M29.6,124c-0.1-0.1-0.1-0.1-0.2-0.2c0-0.1,0-0.1,0-0.2
		c0.1,0.1,0.1,0.1,0.2,0.2C29.7,123.8,29.6,123.9,29.6,124z M257,12.1c0,0,0.2,0,0.3,0c0,0.1,0,0.2-0.1,0.3c0,0-0.2,0-0.4,0
		C257,12.3,257,12.2,257,12.1z M245.4,11.8C245.4,11.8,245.4,11.8,245.4,11.8c0,0.1,0,0.1-0.1,0.1c0,0-0.1,0-0.1-0.1
		C245.3,11.8,245.3,11.8,245.4,11.8z M229.6,12.3C229.6,12.3,229.7,12.4,229.6,12.3c0.1,0.1,0,0.2,0,0.2c0,0-0.1-0.1-0.1-0.1
		L229.6,12.3z M226.6,11.9C226.7,11.9,226.7,12,226.6,11.9c0,0.1,0,0.1-0.1,0.2c0,0-0.1,0-0.1-0.1L226.6,11.9z M216.9,11.8
		C217,11.8,217,11.9,216.9,11.8l-0.1,0.2c0,0-0.1-0.1-0.1-0.1C216.8,11.9,216.9,11.8,216.9,11.8z M181.6,12.4c0,0.1,0.1,0.2,0.1,0.3
		c0,0-0.1,0.1-0.2,0.1c0-0.1-0.1-0.2-0.1-0.3C181.5,12.5,181.6,12.4,181.6,12.4z M174,13.1C174,13.1,174,13.2,174,13.1
		c0,0.1,0,0.1-0.1,0.2c0,0-0.1,0-0.1-0.1C173.9,13.2,173.9,13.1,174,13.1z M158.4,14C158.4,14,158.4,14.1,158.4,14
		c0.1,0.1,0,0.2,0,0.2c0,0-0.1-0.1-0.1-0.1L158.4,14z M155.4,13.6C155.4,13.7,155.5,13.7,155.4,13.6c0,0.1,0,0.1-0.1,0.2
		c0,0-0.1,0-0.1-0.1L155.4,13.6z M145.7,13.7C145.7,13.7,145.8,13.8,145.7,13.7l-0.1,0.2c0,0-0.1-0.1-0.1-0.1
		C145.6,13.8,145.7,13.7,145.7,13.7z M110.5,14.6c0,0.1,0.1,0.2,0.1,0.3c0,0-0.1,0.1-0.2,0.1c0-0.1-0.1-0.2-0.1-0.3
		C110.3,14.6,110.4,14.6,110.5,14.6z M102.8,15.3C102.8,15.3,102.9,15.4,102.8,15.3c0,0.1,0,0.1-0.1,0.2c0,0-0.1,0-0.1-0.1
		C102.7,15.4,102.8,15.3,102.8,15.3z M87.3,16.2C87.4,16.2,87.4,16.3,87.3,16.2c0.1,0.1,0,0.2,0,0.2c0,0-0.1-0.1-0.1-0.1L87.3,16.2z
		 M84.6,15.7C84.7,15.8,84.7,15.8,84.6,15.7c0,0.1,0,0.1-0.1,0.2c0,0,0,0-0.1-0.1L84.6,15.7z M75.2,15.1
		C75.3,15.1,75.3,15.2,75.2,15.1l-0.1,0.2c0,0-0.1-0.1-0.1-0.1C75.1,15.2,75.2,15.1,75.2,15.1z M36.2,20.6c0.1,0.1,0.2,0.1,0.3,0.2
		c0,0-0.1,0.1-0.1,0.2c-0.1-0.1-0.2-0.2-0.2-0.3C36.1,20.8,36.2,20.7,36.2,20.6z M29,28.1c0,0,0.1,0,0.1,0c0,0.1,0,0.2-0.1,0.2
		c0,0-0.1,0-0.1,0C29,28.2,29,28.2,29,28.1z M23,46.1L22.8,46c0,0,0.1-0.1,0.1-0.1C23,45.9,23,46,23,46.1C23.1,46.1,23,46.1,23,46.1
		z M26.2,103.3c0-0.1-0.1-0.1-0.1-0.2c0,0,0-0.1,0.1-0.1C26.2,103.1,26.2,103.2,26.2,103.3C26.3,103.2,26.2,103.3,26.2,103.3z
		 M42.9,133.1c0,0-0.1-0.1-0.1-0.1c0.1,0,0.2,0,0.2-0.1c0,0,0.1,0.1,0.1,0.1C43.1,133,43,133,42.9,133.1z M79,132.9
		c0-0.1-0.1-0.2-0.1-0.3c0,0,0.1-0.1,0.2-0.1c0,0.1,0.1,0.2,0,0.3C79.2,132.8,79.1,132.9,79,132.9z M86.7,132.3
		C86.7,132.3,86.6,132.2,86.7,132.3c0-0.1,0-0.1,0.1-0.2c0,0,0.1,0,0.1,0.1C86.8,132.2,86.8,132.3,86.7,132.3z M102.3,131.6
		C102.3,131.6,102.2,131.5,102.3,131.6c-0.1-0.1,0-0.2,0-0.2c0,0,0.1,0.1,0.1,0.1C102.4,131.5,102.3,131.5,102.3,131.6z M105.3,132
		C105.2,131.9,105.2,131.9,105.3,132c0-0.1,0-0.1,0.1-0.2c0,0,0.1,0,0.1,0.1C105.4,131.9,105.3,131.9,105.3,132z M114.9,132
		C114.9,132,114.9,132,114.9,132c0-0.1,0-0.1,0.1-0.2c0,0,0.1,0.1,0.1,0.1C115,132,115,132,114.9,132z M150.2,131.7
		c0-0.1-0.1-0.2-0.1-0.3c0,0,0.1-0.1,0.2-0.1c0,0.1,0.1,0.2,0,0.3C150.3,131.6,150.2,131.7,150.2,131.7z M157.8,131.1
		C157.8,131.1,157.8,131,157.8,131.1c0-0.1,0-0.1,0.1-0.2c0,0,0.1,0,0.1,0.1C158,131,157.9,131.1,157.8,131.1z M173.5,130.4
		C173.4,130.3,173.4,130.3,173.5,130.4c-0.1-0.1,0-0.2,0-0.2c0,0,0.1,0.1,0.1,0.1C173.5,130.3,173.5,130.3,173.5,130.4z
		 M176.4,130.8C176.4,130.7,176.4,130.7,176.4,130.8c0-0.1,0-0.1,0.1-0.2c0,0,0.1,0,0.1,0.1C176.5,130.7,176.5,130.7,176.4,130.8z
		 M186.1,130.8C186.1,130.8,186,130.8,186.1,130.8c0-0.1,0-0.1,0.1-0.2c0,0,0.1,0.1,0.1,0.1C186.2,130.8,186.1,130.8,186.1,130.8z
		 M221.3,130.5c0-0.1-0.1-0.2-0.1-0.3c0,0,0.1-0.1,0.2-0.1c0,0.1,0.1,0.2,0,0.3C221.5,130.4,221.4,130.4,221.3,130.5z M244.6,129.1
		C244.6,129.1,244.5,129.1,244.6,129.1c-0.1-0.1,0-0.2,0-0.2c0,0,0.1,0.1,0.1,0.1L244.6,129.1z M247.6,129.5
		C247.5,129.5,247.5,129.5,247.6,129.5c0-0.1,0-0.1,0.1-0.2c0,0,0.1,0,0.1,0.1L247.6,129.5z M260.4,127.8c0,0-0.1,0-0.2,0
		c0.1-0.1,0.1-0.1,0.2-0.2c0.1,0,0.1,0,0.2,0C260.5,127.7,260.5,127.8,260.4,127.8z M268.2,79.8c0-0.1-0.1-0.1-0.1-0.2
		c0,0,0-0.1,0.1-0.1C268.3,79.6,268.3,79.6,268.2,79.8C268.3,79.7,268.3,79.7,268.2,79.8z"/>
	<path class="st0" d="M265.1,124c0.1,0.1,0.2,0.1,0.4,0.2c0.2-0.4,0.4-0.8,0.5-1.2c0,0-0.1,0-0.2,0
		C265.7,123.3,265.4,123.6,265.1,124z"/>
	<path class="st0" d="M264.8,125.4c0.1,0,0.2,0,0.2,0c0.1-0.1,0.3-0.3,0.4-0.5c-0.1,0-0.3,0-0.3,0
		C265,125.1,264.9,125.3,264.8,125.4z"/>
	<path class="st0" d="M242.3,130.8c0.1,0,0.2,0.1,0.3,0.1c0,0,0.1-0.1,0.1-0.2c-0.1,0-0.2,0-0.4,0
		C242.4,130.6,242.4,130.7,242.3,130.8z"/>
	<path class="st0" d="M268.5,117.7l-0.1-0.3c0,0.1-0.1,0.2-0.1,0.4L268.5,117.7z"/>
	<path class="st0" d="M267.5,120.6c0,0,0.1-0.1,0.1-0.1c0-0.1,0-0.2,0.1-0.3c0,0-0.1,0.1-0.1,0.1
		C267.5,120.4,267.5,120.5,267.5,120.6z"/>
	<path class="st0" d="M245.5,130.4c0,0,0.1,0.1,0.2,0.1c0,0,0,0,0.1-0.1l-0.1-0.1L245.5,130.4z"/>
	<path class="st0" d="M270.6,100l-0.1-0.1l-0.1,0c0,0.1,0,0.1,0.1,0.2C270.5,100.1,270.6,100.1,270.6,100z"/>
	<path class="st0" d="M259.6,13.5c0-0.1-0.1-0.2-0.1-0.3l-0.2,0c-0.1,0.1-0.2,0.3-0.3,0.4C259.2,13.5,259.4,13.5,259.6,13.5z"/>
	<polygon class="st0" points="264.7,44.8 264.7,44.7 264.6,44.7 	"/>
	<path class="st0" d="M266.5,47.9c-0.1-0.3-0.3-0.5-0.4-0.7c0,0-0.1,0-0.1,0.1c0,0.2,0,0.4,0.1,0.7
		C266.2,47.9,266.3,47.9,266.5,47.9z"/>
	<path class="st0" d="M267,48.5c0-0.1,0-0.2-0.1-0.4c-0.1,0.1-0.2,0.1-0.2,0.1c0,0.1,0.1,0.2,0.1,0.3C266.9,48.5,267,48.5,267,48.5z
		"/>
	<path class="st0" d="M268.6,65.9c0,0-0.1-0.1-0.2-0.1c0,0.1,0,0.2,0,0.4c0,0,0.1,0.1,0.2,0.1C268.6,66.1,268.6,66,268.6,65.9z"/>
	<polygon class="st0" points="265.6,43.9 265.4,43.7 265.4,44 	"/>
	<path class="st0" d="M265.8,45.5l0.1,0.2c0,0,0.1-0.1,0.1-0.1C266,45.5,265.9,45.5,265.8,45.5C265.9,45.5,265.9,45.5,265.8,45.5z"
		/>
	<path class="st0" d="M267.9,63l0.1,0.1c0-0.1,0.1-0.1,0.1-0.2c0,0,0,0-0.1-0.1L267.9,63z"/>
	<path class="st0" d="M265.3,28.6l-0.1-0.1l-0.1,0c0,0.1,0,0.1,0.1,0.2C265.2,28.7,265.3,28.6,265.3,28.6z"/>
	<path class="st0" d="M183.4,12.8c0-0.1-0.1-0.2-0.2-0.3c0,0-0.1,0.1-0.1,0.1c0,0.1,0,0.3,0,0.5C183.2,13,183.3,12.9,183.4,12.8z"/>
	<polygon class="st0" points="210.3,13.2 210.3,13.2 210.3,13.2 	"/>
	<path class="st0" d="M213.6,12.1c0-0.1,0-0.3,0-0.4c-0.3,0.1-0.5,0.2-0.7,0.3c0,0,0,0.1,0.1,0.1C213.1,12.1,213.3,12.1,213.6,12.1z
		"/>
	<path class="st0" d="M214.2,11.3c0-0.1-0.1-0.1-0.1-0.1c-0.1,0-0.2,0-0.4,0c0.1,0.1,0.1,0.2,0.1,0.2
		C214,11.3,214.1,11.3,214.2,11.3z"/>
	<path class="st0" d="M231.9,10.7c-0.1,0-0.2-0.1-0.3-0.1c0,0-0.1,0.1-0.1,0.2c0.1,0,0.2,0,0.4,0C231.9,10.8,231.9,10.7,231.9,10.7z
		"/>
	<polygon class="st0" points="209.5,12.2 209.3,12.4 209.6,12.4 	"/>
	<path class="st0" d="M211.3,12C211.3,12,211.2,11.9,211.3,12c-0.1-0.1-0.2,0-0.2,0c0,0,0.1,0.1,0.1,0.1L211.3,12z"/>
	<path class="st0" d="M228.7,11c0,0-0.1-0.1-0.2-0.1c0,0,0,0-0.1,0.1l0.1,0.1L228.7,11z"/>
	<path class="st0" d="M194.3,11.3l-0.1,0.1l0,0.1c0.1,0,0.1,0,0.2-0.1C194.3,11.5,194.3,11.4,194.3,11.3z"/>
	<path class="st0" d="M112.3,15c0-0.1-0.1-0.2-0.2-0.3c0,0-0.1,0.1-0.1,0.1c0,0.1,0,0.3,0,0.5C112.1,15.2,112.2,15.1,112.3,15z"/>
	<polygon class="st0" points="139.1,15.1 139.1,15.1 139.1,15.2 	"/>
	<path class="st0" d="M142.3,14c0-0.1,0-0.3,0-0.4c-0.3,0.1-0.5,0.2-0.7,0.3c0,0,0,0.1,0.1,0.1C141.9,14,142.1,14,142.3,14z"/>
	<path class="st0" d="M143,13.2c0-0.1-0.1-0.1-0.1-0.1c-0.1,0-0.2,0-0.4,0.1c0.1,0.1,0.1,0.2,0.1,0.2
		C142.8,13.3,142.9,13.2,143,13.2z"/>
	<path class="st0" d="M160.6,12.3c-0.1,0-0.2-0.1-0.3-0.1c0,0-0.1,0.1-0.1,0.2c0.1,0,0.2,0,0.4,0C160.6,12.5,160.6,12.4,160.6,12.3z
		"/>
	<polygon class="st0" points="138.3,14.2 138.1,14.4 138.4,14.4 	"/>
	<path class="st0" d="M140.1,14C140.1,13.9,140,13.9,140.1,14c-0.1-0.1-0.2,0-0.2,0c0,0,0.1,0.1,0.1,0.1L140.1,14z"/>
	<path class="st0" d="M157.4,12.7c-0.1,0-0.1-0.1-0.2-0.1c0,0,0,0-0.1,0.1l0.1,0.1L157.4,12.7z"/>
	<path class="st0" d="M123.1,13.4l-0.1,0.1l0,0.1c0.1,0,0.1,0,0.2-0.1C123.1,13.6,123.1,13.5,123.1,13.4z"/>
	<path class="st0" d="M38.5,19.8c-0.1,0-0.2-0.1-0.3-0.1L38,19.9c0.1,0.1,0.2,0.2,0.3,0.4C38.3,20.1,38.4,20,38.5,19.8z"/>
	<polygon class="st0" points="68.4,16 68.4,16 68.4,16 	"/>
	<path class="st0" d="M71.8,15.1c0-0.1,0-0.3,0-0.4c-0.3,0.1-0.5,0.2-0.7,0.3c0,0,0,0.1,0.1,0.1C71.3,15.1,71.6,15.1,71.8,15.1z"/>
	<path class="st0" d="M72.6,14.4c0-0.1-0.1-0.2-0.1-0.2c-0.1,0-0.2,0-0.4,0c0.1,0.1,0.1,0.2,0.1,0.2C72.3,14.4,72.4,14.4,72.6,14.4z
		"/>
	<path class="st0" d="M89.5,14.6c-0.1,0-0.2-0.1-0.3-0.1c0,0-0.1,0.1-0.1,0.2c0.1,0,0.2,0,0.3,0C89.5,14.7,89.5,14.6,89.5,14.6z"/>
	<polygon class="st0" points="67.6,15 67.4,15.2 67.7,15.2 	"/>
	<path class="st0" d="M69.5,14.9C69.5,14.9,69.5,14.8,69.5,14.9c-0.1-0.1-0.2,0-0.3,0c0,0,0.1,0.1,0.1,0.1L69.5,14.9z"/>
	<path class="st0" d="M86.5,14.9c0,0-0.1-0.1-0.1-0.1c0,0,0,0-0.1,0.1l0.1,0.1L86.5,14.9z"/>
	<path class="st0" d="M50.9,14.5l-0.2,0.1l0,0.1c0.1,0,0.2-0.1,0.2-0.1C51,14.7,50.9,14.6,50.9,14.5z"/>
	<path class="st0" d="M24.8,93.8c-0.1,0.1-0.2,0.2-0.2,0.2c0,0,0.1,0.1,0.1,0.1c0.1,0,0.3-0.1,0.5-0.1C25,94,24.9,93.9,24.8,93.8z"
		/>
	<polygon class="st0" points="22.9,66.5 22.9,66.6 22.9,66.6 	"/>
	<path class="st0" d="M21.2,63.2c0.1,0.3,0.2,0.5,0.4,0.7c0,0,0.1,0,0.1-0.1c0-0.2,0-0.5,0-0.7C21.5,63.2,21.4,63.2,21.2,63.2z"/>
	<path class="st0" d="M20.7,62.6c0,0.1,0,0.2,0.1,0.4c0.1-0.1,0.2-0.1,0.2-0.1c0-0.1-0.1-0.2-0.1-0.3C20.8,62.5,20.7,62.5,20.7,62.6
		z"/>
	<path class="st0" d="M21.7,43.7c0-0.2,0.1-0.3,0.1-0.4c0,0-0.1-0.1-0.1-0.1c0,0.1-0.1,0.2-0.1,0.4C21.5,43.5,21.6,43.6,21.7,43.7z"
		/>
	<polygon class="st0" points="21.9,67.4 22.2,67.6 22.1,67.3 	"/>
	<path class="st0" d="M21.7,65.8C21.7,65.8,21.7,65.7,21.7,65.8l0-0.3c0,0-0.1,0.1-0.1,0.1C21.6,65.7,21.7,65.7,21.7,65.8z"/>
	<path class="st0" d="M21.4,46.8c0,0.1-0.1,0.1-0.1,0.2c0,0,0,0.1,0.1,0.1l0.2-0.1L21.4,46.8z"/>
	<path class="st0" d="M22.2,83.1l0.1,0.1l0.1,0c0-0.1-0.1-0.1-0.1-0.2C22.3,83,22.2,83.1,22.2,83.1z"/>
</g>
</svg>
