<?xml version="1.0" encoding="utf-8"?>
<!-- Generator: Adobe Illustrator 25.2.3, SVG Export Plug-In . SVG Version: 6.00 Build 0)  -->
<svg version="1.1" id="Capa_1" xmlns="http://www.w3.org/2000/svg" xmlns:xlink="http://www.w3.org/1999/xlink" x="0px" y="0px"
	 viewBox="0 0 291.1 144.1" style="enable-background:new 0 0 291.1 144.1;" xml:space="preserve">
<style type="text/css">
	.st0{fill:#323132;}
</style>
<g>
	<path class="st0" d="M22.2,70.6c-0.1,0.1-0.2,0.1-0.2,0.2c0,0,0.1,0.1,0.1,0.1c0.1,0,0.3,0,0.5,0C22.4,70.8,22.3,70.7,22.2,70.6z"
		/>
	<polygon class="st0" points="22.8,43.4 22.8,43.4 22.9,43.4 	"/>
	<path class="st0" d="M21.9,40c-0.1,0-0.3,0-0.4,0c0.1,0.3,0.2,0.5,0.3,0.7c0,0,0.1,0,0.1-0.1C21.9,40.5,21.9,40.2,21.9,40z"/>
	<path class="st0" d="M21.2,39.2c-0.1,0-0.2,0.1-0.2,0.1c0,0.1,0,0.2,0,0.4c0.1-0.1,0.2-0.1,0.2-0.1C21.2,39.5,21.2,39.3,21.2,39.2z
		"/>
	<path class="st0" d="M35.8,18c-0.2,0-0.4,0-0.6,0c-0.1,0-0.1,0.1-0.2,0.2c0.3,0,0.5,0,0.7-0.1C35.7,18.2,35.7,18.1,35.8,18z"/>
	<polygon class="st0" points="21.8,44.1 22,44.3 22,44 	"/>
	<path class="st0" d="M21.6,42.3c0,0.1,0,0.1,0.1,0.2c0,0,0.1-0.1,0.1-0.1L21.6,42.3C21.7,42.3,21.6,42.3,21.6,42.3z"/>
	<path class="st0" d="M30.1,19.9c-0.1,0-0.2,0-0.3,0c0,0-0.1,0.1-0.1,0.1l0.3,0L30.1,19.9z"/>
	<path class="st0" d="M20.5,59.6l0.1,0.1l0.1,0c0-0.1,0-0.1-0.1-0.2C20.6,59.5,20.5,59.6,20.5,59.6z"/>
	<path class="st0" d="M59.7,128.6c0,0.1,0.1,0.2,0.2,0.3c0,0,0.1-0.1,0.1-0.1c0-0.1,0-0.3,0-0.5C59.9,128.5,59.8,128.6,59.7,128.6z"
		/>
	<polygon class="st0" points="30.6,115.7 30.6,115.8 30.7,115.8 	"/>
	<path class="st0" d="M27.9,112.3c0.2,0.3,0.4,0.5,0.5,0.7c0,0,0,0,0.1-0.1c-0.1-0.2-0.1-0.5-0.2-0.8
		C28.2,112.2,28.1,112.3,27.9,112.3z"/>
	<path class="st0" d="M27.3,111.7c0,0.1,0.1,0.2,0.1,0.4c0.1-0.1,0.2-0.2,0.1-0.2c0-0.1-0.1-0.2-0.2-0.3
		C27.3,111.6,27.3,111.7,27.3,111.7z"/>
	<path class="st0" d="M23.6,93.8c0,0.1,0,0.2,0,0.3c0,0,0.1,0.1,0.2,0.1c0-0.1,0-0.3,0-0.4C23.8,93.9,23.7,93.9,23.6,93.8z"/>
	<polygon class="st0" points="30.1,117.1 30.4,117.3 30.3,117 	"/>
	<path class="st0" d="M29,115c0,0.1,0.1,0.1,0.1,0.2c0,0,0-0.1,0-0.1l-0.1-0.2C29,114.9,29,115,29,115z"/>
	<path class="st0" d="M24.4,97.2C24.3,97.2,24.4,97.2,24.4,97.2l0.2-0.1L24.4,97C24.4,97.1,24.4,97.1,24.4,97.2z"/>
	<path class="st0" d="M48.5,129.6l0.2-0.1l0-0.1c-0.1,0-0.2,0-0.2,0.1C48.5,129.5,48.5,129.6,48.5,129.6z"/>
	<path class="st0" d="M130.2,129.5c0,0.1,0.1,0.2,0.2,0.3c0,0,0.1-0.1,0.1-0.1c0-0.1,0-0.3,0-0.5
		C130.4,129.3,130.3,129.4,130.2,129.5z"/>
	<path class="st0" d="M103.6,128.2C103.6,128.2,103.6,128.2,103.6,128.2C103.7,128.2,103.7,128.1,103.6,128.2
		C103.6,128.1,103.6,128.1,103.6,128.2z"/>
	<path class="st0" d="M100.4,129.2c0,0.1,0,0.3,0,0.4c0.3-0.1,0.5-0.2,0.7-0.3c0,0,0-0.1-0.1-0.1
		C100.8,129.2,100.6,129.2,100.4,129.2z"/>
	<path class="st0" d="M99.7,129.9c0,0.1,0.1,0.1,0.1,0.2c0.1,0,0.2,0,0.4,0c-0.1-0.1-0.1-0.2-0.1-0.2
		C99.9,129.9,99.8,129.9,99.7,129.9z"/>
	<path class="st0" d="M82.2,130c0.1,0,0.2,0.1,0.3,0.1c0,0,0.1-0.1,0.1-0.2c-0.1,0-0.2-0.1-0.3,0C82.3,129.9,82.3,130,82.2,130z"/>
	<path class="st0" d="M104.4,129.2c0.1-0.1,0.1-0.1,0.2-0.2c-0.1,0-0.2,0-0.2,0C104.3,129,104.4,129.1,104.4,129.2z"/>
	<path class="st0" d="M102.6,129.3C102.6,129.3,102.6,129.4,102.6,129.3c0.1,0.1,0.2,0,0.2,0c0,0-0.1-0.1-0.1-0.1
		C102.7,129.2,102.6,129.3,102.6,129.3z"/>
	<path class="st0" d="M85.4,129.8c0,0,0.1,0.1,0.1,0.1c0,0,0,0,0.1-0.1c0,0-0.1-0.1-0.1-0.1C85.5,129.7,85.4,129.8,85.4,129.8z"/>
	<path class="st0" d="M119.4,130.6c0,0,0.1-0.1,0.1-0.1c0,0,0-0.1,0-0.1c-0.1,0-0.1,0-0.2,0.1C119.3,130.4,119.4,130.5,119.4,130.6z
		"/>
	<path class="st0" d="M200.6,130.3c0,0.1,0.1,0.2,0.2,0.3c0,0,0.1-0.1,0.1-0.1c0-0.1,0-0.3,0-0.5
		C200.8,130.2,200.7,130.3,200.6,130.3z"/>
	<path class="st0" d="M174,129C174,129,174.1,129,174,129C174.1,129,174.1,129,174,129C174.1,129,174.1,129,174,129z"/>
	<path class="st0" d="M170.8,130c0,0.1,0,0.3,0,0.4c0.3-0.1,0.5-0.2,0.7-0.3c0,0,0-0.1-0.1-0.1C171.2,130,171,130,170.8,130z"/>
	<path class="st0" d="M170.1,130.8c0,0.1,0.1,0.1,0.1,0.2c0.1,0,0.2,0,0.4,0c-0.1-0.1-0.1-0.2-0.1-0.2
		C170.3,130.7,170.2,130.8,170.1,130.8z"/>
	<path class="st0" d="M152.7,130.9c0.1,0,0.2,0.1,0.3,0.1c0,0,0.1-0.1,0.1-0.2c-0.1,0-0.2-0.1-0.3,0
		C152.7,130.8,152.7,130.9,152.7,130.9z"/>
	<path class="st0" d="M174.8,130c0.1-0.1,0.1-0.1,0.2-0.2c-0.1,0-0.2,0-0.2,0C174.8,129.9,174.8,129.9,174.8,130z"/>
	<path class="st0" d="M173,130.2C173,130.2,173.1,130.2,173,130.2c0.1,0.1,0.2,0,0.2,0c0,0-0.1-0.1-0.1-0.1
		C173.1,130.1,173.1,130.1,173,130.2z"/>
	<path class="st0" d="M155.8,130.7c0,0,0.1,0.1,0.1,0.1c0,0,0,0,0.1-0.1c0,0-0.1-0.1-0.1-0.1C155.9,130.6,155.8,130.6,155.8,130.7z"
		/>
	<path class="st0" d="M189.8,131.4c0,0,0.1-0.1,0.1-0.1c0,0,0-0.1,0-0.1c-0.1,0-0.1,0-0.2,0.1C189.7,131.3,189.8,131.4,189.8,131.4z
		"/>
	<path class="st0" d="M269.4,110.9c0.1-0.1,0.2-0.2,0.2-0.2c0,0-0.1-0.1-0.1-0.1c-0.1,0-0.3,0-0.5,0.1
		C269.2,110.7,269.3,110.8,269.4,110.9z"/>
	<polygon class="st0" points="244.5,129.9 244.5,129.9 244.5,129.8 	"/>
	<path class="st0" d="M270.6,114l0-0.3l0-0.2c-0.2,0.1-0.4,0.4-0.6,0.6c-0.2,0.2-0.4,0.2-0.6-0.1c0-0.1,0.1-0.2,0.1-0.2
		c0-0.1,0.1-0.1,0.1-0.2c-0.2-0.1-0.3-0.2-0.4-0.2c0.3-0.6,0.7-1.2,1.1-1.9c-0.5,0-0.6-0.2-0.9-0.5c0,0-0.1,0-0.1,0
		c-0.2,0-0.4-0.2-0.2-0.3c-0.1-0.1,0.1-0.2,0.4-0.1c0,0,0.1,0,0.1,0.1c0.4-0.1,0.6-0.2,0.8-0.3c-0.3-0.1,0-0.4-0.1-0.6
		c-0.1,0-0.3,0-0.4-0.1c0.3-0.2,0.5-0.4,0.7-0.6c-0.4-0.1-0.3-0.7-0.7-0.6l0-0.3c0-0.1,0-0.3,0.1-0.5c-0.5,0.4-0.6,0.3-0.7-0.1
		l0.9-0.2c-0.1-0.3-0.3-0.3-0.4-0.4c-0.2-0.1-0.4-0.3-0.4-0.4c0-0.4,0-1,0.3-1.3c0.4-0.5,0-0.8,0-1.2c0-0.1-0.1-0.4-0.1-0.4
		c0.4-0.2-0.4-0.4,0-0.7c0.1-0.1,0-0.6,0-0.9c0-0.3-0.1-0.6-0.1-0.9c0.2-0.1,0.4-0.2,0.4-0.2c-0.1-0.4-0.3-0.9-0.4-1.4
		c0-0.1-0.1-0.3-0.1-0.4c0.1-0.5,0.3-1,0.5-1.6c-0.3-0.3-0.6-0.6-0.9-0.9c0,0,0-0.1-0.1-0.2c0.1-0.1,0.3-0.1,0.4-0.2
		c-0.2-0.2-0.4-0.3-0.5-0.5c0.2-0.3,0.4-0.6-0.1-0.8c0,0.1-0.1,0.1-0.1,0.2c0-0.1-0.1-0.1-0.1-0.1c0,0,0.1-0.1,0.2-0.1
		c0,0,0,0.1,0,0.1c0.2-0.6-0.7-0.6-0.6-1.1c0.1-0.1,0.3-0.2,0.5-0.3c-0.2-0.1-0.3-0.1-0.5-0.1c0.3-1,0.3-1.8,0-2.5l0.5-0.3
		c0,0,0,0,0-0.1l-0.1,0c-0.1-0.2-0.3-0.4-0.6-0.7c-0.2-0.2-0.2-0.4-0.3-0.6c0.2,0,0.3,0.1,0.4,0.2c0.1,0.1,0.2,0.1,0.4,0.2
		c0-0.1,0.1-0.4,0-0.4c-0.4-0.2,0.1-0.4-0.1-0.5c-0.2-0.1-0.4-0.2-0.6-0.3c-0.1,0-0.1-0.1-0.1-0.2c0.2-0.2,0.5-0.4,0.7-0.6
		c-0.1-0.6-0.6-0.8-1-1.1c0,0,0-0.1,0-0.2c0.2-0.1,0.4-0.1,0.7-0.2c-0.3-0.2-0.6-0.3-0.8-0.5l0.1-0.2c0.3,0.1,0.6,0.1,1,0.2
		c-0.2-0.2-0.3-0.4-0.3-0.5c-0.4,0.1-0.6-0.1-0.8-0.6c0.3-0.3,0.6-0.6,0.9-0.9c-0.3-1.1-0.3-1.2,0.1-1.4c0-0.5-0.3-1.1-0.1-1.6
		c0.2-0.5,0-0.9-0.2-1.3c-0.2-0.4-0.2-0.7-0.3-1.1c0-0.2-0.2-0.4-0.2-0.6c0-0.2,0.1-0.5,0.1-0.7c0-0.3,0-0.7-0.1-1
		c0-0.3,0-0.7-0.1-0.8c-0.3-0.3,0.2-0.6,0-0.8c-0.1-0.1-0.3-0.3-0.5-0.4c0.1,0,0.2-0.1,0.3-0.1c0.1,0,0.3-0.1,0.4-0.1
		c0-0.7-0.5-0.2-0.7-0.4c0-0.5-0.1-0.9-0.1-1.4c0.5-0.3,0.5-0.5,0.3-0.5c-0.5,0-0.4-0.3-0.4-0.6c0-0.1-0.1-0.1-0.1-0.1
		c-0.2,0.1-0.4,0.2-0.7,0.3c0.1-0.4,0.2-0.6,0.3-0.8c-0.2,0-0.5,0-0.8,0.1c0.3-0.5,0.4-0.8,0.6-1.2c-0.2-0.3-0.5-0.6-0.7-0.9
		c0.1-0.1,0.3-0.1,0.4-0.2c-0.2-0.3-0.5-0.5-0.8-0.9l0,0c0,0-0.1-0.1,0-0.1c-0.1-0.1-0.1-0.1,0-0.1c0.1,0,0.1,0.1,0.2,0.1l0,0.1
		c0.4,0,0.7-0.1,0.9,0.2c0,0,0.2-0.1,0.3-0.2c-0.1-0.1-0.2-0.3-0.2-0.3c-0.4,0-0.3-0.3-0.3-0.5l-0.2-0.1l0.2-0.1
		c0.3-0.2-0.1-0.8,0.5-0.8c0.1-0.4,0.5-0.8,0.2-1.3c-0.2-0.3-0.2-0.7-0.2-1c0,0,0.1-0.1,0.1-0.2c0.1,0.1,0.2,0.3,0.4,0.7
		c0-0.4,0-0.6-0.1-0.7c-0.1-0.3-0.4-0.6-0.4-0.9c0-0.4,0.2-0.8-0.2-1.1c0.4-0.7,0-1.2-0.4-1.8c-0.1-0.1,0-0.3-0.1-0.5l-0.2-1.5
		c0.7-0.5,0.9-0.9,0.5-1.6c-0.3-0.4-0.2-0.7-0.1-1.1c0.1-0.3,0.1-0.7,0.1-1c0-0.2-0.1-0.5-0.2-0.6c-0.2-0.2-0.4-0.4-0.5-0.5
		c0-0.5,0-0.8,0.1-1.1c0-0.1,0.1-0.2,0.2-0.3c0-0.3,0-0.6-0.3-0.9c-0.4-0.3,0.4-0.6-0.1-0.9c-0.1-0.1,0.2-0.2,0-0.4
		c-0.4-0.8-0.4-1.6,0.1-2.4c-0.2-0.1-0.3-0.3-0.4-0.3c0-0.4,0.1-0.7,0-1.1c0-0.3-0.2-0.5-0.3-0.7c-0.2-0.3,0.4-0.4,0-0.7
		c-0.1-0.1,0-0.4,0.1-0.8c-0.5,0.3-0.7,0.7-1.2,0.4c0.1-0.1,0.1-0.2,0.2-0.3c-0.2-0.1-0.3-0.1-0.5-0.2c0.3-0.6,0.6-1.1,1-1.7
		c-0.5,0.1-0.6-0.2-0.9-0.5c0,0-0.1,0-0.1,0c-0.2,0-0.4-0.2-0.3-0.3c-0.1-0.1,0.1-0.2,0.4-0.2c0,0,0.1,0,0.1,0.1
		c0.4-0.1,0.6-0.2,0.8-0.3c-0.3-0.1,0-0.4-0.1-0.6c-0.1,0-0.3,0-0.4-0.1c0.2-0.2,0.5-0.4,0.7-0.6c-0.4-0.1-0.3-0.7-0.7-0.5l0-0.3
		c0-0.1,0-0.3,0-0.5c-0.5,0.4-0.6,0.4-0.7-0.1l0.9-0.3c-0.1-0.3-0.3-0.3-0.4-0.4c-0.2-0.1-0.4-0.3-0.4-0.4c0-0.5,0-1,0.2-1.3
		c0.4-0.5,0-0.8,0-1.3c0-0.1-0.1-0.4-0.1-0.4c0.4-0.2-0.4-0.4,0-0.7c0.1-0.1,0-0.6-0.1-1c0-0.3-0.1-0.6-0.1-0.9
		c0.2-0.1,0.4-0.2,0.4-0.2c-0.2-0.5-0.4-1-0.6-1.5c-0.1-0.1-0.2-0.3-0.1-0.4c0.1-0.6,0.1-1.2,0.2-1.9c-0.3-0.3-0.7-0.7-1.1-1
		c-0.1-0.1-0.1-0.2-0.1-0.3c0.1-0.1,0.2-0.3,0.3-0.4c-0.3-0.3-0.5-0.5-0.7-0.7c0.1-0.6,0.1-1.2-0.5-1.3c0,0.2,0,0.3,0,0.3
		c0-0.1-0.1-0.2-0.1-0.2c0-0.1,0.1-0.1,0.1-0.2c0,0.1,0,0.1,0,0.1c-0.2-1.1-1-0.9-1.3-1.8c0.1-0.2,0.1-0.4,0.2-0.7
		c-0.2,0-0.4,0-0.5,0c-0.3-0.9-0.7-1.6-1.1-2.2c-0.4-0.6-1-1.1-1.6-1.4c0-0.2,0-0.4,0-0.7c0,0-0.1,0-0.1-0.1l0,0
		c-0.3-0.2-0.8-0.3-1.5-0.4c-0.2,0-0.4-0.1-0.6-0.2c-0.2-0.1-0.4-0.1-0.6-0.2c0.2-0.2,0.4-0.1,0.6-0.2c0.2,0,0.4-0.1,0.5-0.1
		c-0.2-0.2-0.6-0.4-0.6-0.4c-0.5,0.1-0.6-0.4-0.9-0.4c-0.3,0-0.6,0.2-0.8,0.2c-0.1,0-0.3,0-0.5-0.1c-0.2-0.3-0.5-0.7-0.7-1
		c-1.2-0.3-1.7,0.1-2.3,0.4c-0.1,0-0.2,0-0.3,0c0-0.2,0-0.4-0.1-0.7c-0.5,0.2-0.8,0.4-1.1,0.6l-0.3-0.1c0.2-0.3,0.4-0.5,0.7-0.9
		c-0.5,0.1-0.8,0.1-1,0.2c0,0.4-0.3,0.6-1,0.7c-0.3-0.3-0.7-0.7-1.1-1c-0.5,0-0.6,0.1-0.8,0.1c-0.2,0-0.3,0-0.4,0
		c-0.2,0-0.3-0.1-0.4-0.3c-0.6,0-1.3,0.2-1.7,0c-0.5-0.2-1,0-1.3,0.1c-0.4,0.1-0.8,0.2-1.1,0.2c-0.2,0-0.4,0.2-0.6,0.2
		c-0.2,0-0.5-0.1-0.7-0.1c-0.3,0-0.6,0-1,0c-0.3,0-0.6-0.1-0.8,0.1c-0.3,0.3-0.5-0.3-0.8,0c-0.2,0.1-0.3,0.3-0.4,0.5
		c0-0.1-0.1-0.2-0.1-0.3c0-0.1,0-0.3-0.1-0.4c-0.7-0.1-0.3,0.5-0.5,0.7c-0.5,0-0.9,0-1.4,0c-0.2-0.5-0.5-0.6-0.5-0.3
		c0,0.5-0.3,0.3-0.6,0.4c-0.1,0-0.1,0.1-0.1,0.1c0.1,0.2,0.1,0.4,0.2,0.7c-0.4-0.2-0.6-0.3-0.8-0.3c0,0.2,0,0.5,0,0.8
		c-0.5-0.3-0.8-0.5-1.2-0.7c-0.3,0.2-0.6,0.4-1,0.7c-0.1-0.1-0.1-0.3-0.2-0.4c-0.3,0.2-0.6,0.5-0.9,0.8l0,0c0,0-0.1,0.1-0.1,0
		c-0.1,0.1-0.2,0-0.1,0c0-0.1,0.1-0.1,0.1-0.1l0,0c0.1-0.4,0-0.7,0.3-0.9c0,0-0.1-0.2-0.1-0.4c-0.1,0.1-0.3,0.1-0.3,0.2
		c0,0.4-0.3,0.3-0.5,0.3L226,14l-0.1-0.2c-0.1-0.3-0.8,0-0.7-0.6c-0.4-0.1-0.7-0.6-1.2-0.3c-0.3,0.2-0.7,0.1-1,0.1
		c0,0-0.1-0.1-0.2-0.1c0.2-0.1,0.3-0.2,0.7-0.4c-0.4,0-0.6,0-0.7,0c-0.3,0.1-0.7,0.4-1,0.3c-0.4-0.1-0.8-0.2-1.1,0.1
		c-0.7-0.4-1.2-0.1-1.8,0.3c-0.1,0.1-0.3,0-0.5,0l-1.5,0c-0.4-0.7-0.8-1-1.5-0.6c-0.5,0.2-0.7,0.1-1.1,0c-0.3-0.1-0.6-0.2-1-0.2
		c-0.2,0-0.5,0.1-0.7,0.2c-0.2,0.1-0.4,0.4-0.5,0.4c-0.5-0.1-0.8-0.1-1-0.2c-0.1,0-0.2-0.1-0.3-0.2c-0.3,0-0.6-0.1-0.9,0.2
		c-0.3,0.3-0.6-0.4-0.9,0c-0.1,0.1-0.2-0.2-0.4-0.1c-0.8,0.3-1.6,0.2-2.3-0.3c-0.1,0.1-0.3,0.3-0.4,0.4c-0.4,0-0.7-0.1-1-0.1
		c-0.3,0-0.5,0.1-0.7,0.2c-0.3,0.2-0.4-0.4-0.7-0.1c-0.1,0.1-0.4-0.1-0.8-0.2c0.2,0.5,0.6,0.8,0.3,1.2c-0.1-0.1-0.2-0.1-0.3-0.2
		c-0.1,0.2-0.1,0.3-0.2,0.4c-0.5-0.4-1-0.8-1.6-1.2c0,0.5-0.3,0.6-0.6,0.8c0,0,0,0.1,0,0.1c-0.1,0.2-0.2,0.4-0.3,0.2
		c-0.1,0.1-0.1-0.2-0.1-0.4c0,0,0-0.1,0.1-0.1c0-0.4-0.1-0.6-0.2-0.8c-0.2,0.3-0.4,0-0.6,0.1c0,0.1-0.1,0.3-0.1,0.4
		c-0.2-0.3-0.4-0.5-0.6-0.8c-0.2,0.3-0.7,0.2-0.6,0.7l-0.3-0.1c-0.1,0-0.3-0.1-0.5-0.1c0.3,0.6,0.3,0.6-0.1,0.7l-0.2-1
		c-0.3,0.1-0.3,0.3-0.4,0.4c-0.1,0.1-0.3,0.4-0.4,0.3c-0.4-0.1-1-0.1-1.3-0.4c-0.4-0.5-0.8-0.1-1.2-0.1c-0.1,0-0.4,0.1-0.4,0
		c-0.2-0.5-0.4,0.3-0.7-0.1c-0.1-0.1-0.6-0.1-0.9-0.1c-0.3,0-0.6,0-0.9,0c-0.1-0.2-0.1-0.4-0.1-0.4c-0.5,0.1-0.9,0.2-1.4,0.3
		c-0.1,0-0.3,0.1-0.4,0.1c-0.5-0.2-1-0.4-1.5-0.6c-0.3,0.2-0.6,0.5-1,0.8c0,0-0.1,0-0.2,0.1c-0.1-0.2-0.1-0.3-0.2-0.4
		c-0.2,0.2-0.4,0.3-0.5,0.5c-0.3-0.3-0.6-0.5-0.8,0c0.1,0,0.1,0.1,0.2,0.1c-0.1,0-0.1,0.1-0.1,0c0,0-0.1-0.1-0.1-0.2
		c0,0,0.1,0,0.1,0c-0.6-0.2-0.7,0.6-1.2,0.5c-0.1-0.1-0.2-0.3-0.3-0.5c-0.1,0.2-0.1,0.3-0.2,0.5c-1-0.4-1.8-0.4-2.5-0.1l-0.2-0.5
		c0,0,0,0-0.1,0l0,0.1c-0.2,0.1-0.4,0.2-0.8,0.6c-0.2,0.2-0.4,0.2-0.6,0.3c0-0.2,0.1-0.3,0.2-0.4c0.1-0.1,0.1-0.2,0.2-0.4
		c-0.1,0-0.4-0.1-0.4-0.1c-0.2,0.3-0.4-0.1-0.5,0c-0.1,0.2-0.2,0.4-0.3,0.6c0,0-0.1,0.1-0.2,0.1c-0.2-0.2-0.4-0.5-0.6-0.7
		c-0.6,0.1-0.8,0.6-1.1,0.9c0,0-0.1,0-0.2,0c0-0.2-0.1-0.4-0.1-0.7c-0.2,0.3-0.4,0.5-0.5,0.8l-0.2-0.1c0.1-0.3,0.2-0.6,0.3-1
		c-0.3,0.2-0.4,0.2-0.5,0.3c0.1,0.4-0.2,0.6-0.6,0.8c-0.3-0.3-0.5-0.6-0.8-1c-1.1,0.2-1.2,0.2-1.4-0.2c-0.5,0-1.1,0.2-1.6,0
		c-0.5-0.2-0.9,0-1.3,0.1c-0.4,0.1-0.7,0.2-1.1,0.2c-0.2,0-0.4,0.2-0.7,0.2c-0.2,0-0.5-0.1-0.7-0.2c-0.3,0-0.7,0-1,0
		c-0.3,0-0.7-0.1-0.8,0.1c-0.3,0.3-0.6-0.3-0.8,0c-0.2,0.1-0.3,0.3-0.4,0.5c0-0.1-0.1-0.2-0.1-0.3c0-0.1-0.1-0.3-0.1-0.4
		c-0.7-0.1-0.3,0.5-0.5,0.7c-0.5,0-0.9,0-1.4,0c-0.2-0.5-0.5-0.6-0.5-0.3c0,0.5-0.3,0.3-0.6,0.4c-0.1,0-0.1,0.1-0.1,0.1
		c0.1,0.2,0.1,0.4,0.2,0.7c-0.4-0.2-0.6-0.3-0.8-0.3c0,0.2,0,0.5,0,0.8c-0.5-0.3-0.8-0.5-1.2-0.7c-0.3,0.2-0.6,0.4-1,0.7
		c-0.1-0.1-0.1-0.3-0.2-0.4c-0.3,0.2-0.6,0.5-0.9,0.8l0,0c0,0-0.1,0.1-0.1,0c-0.1,0.1-0.2,0-0.1,0c0-0.1,0.1-0.1,0.1-0.1l0.1,0
		c0.1-0.4,0-0.7,0.3-0.9c0,0-0.1-0.2-0.1-0.4c-0.1,0.1-0.3,0.1-0.3,0.2c0,0.4-0.3,0.3-0.5,0.3l-0.2,0.2l-0.1-0.2
		c-0.2-0.3-0.8,0-0.8-0.6c-0.4-0.1-0.7-0.6-1.3-0.3c-0.3,0.2-0.7,0.1-1,0.2c0,0-0.1-0.1-0.2-0.1c0.2-0.1,0.3-0.2,0.7-0.4
		c-0.4,0-0.6,0-0.7,0c-0.3,0.1-0.7,0.4-1,0.4c-0.4-0.1-0.8-0.2-1.1,0.1c-0.7-0.4-1.2-0.1-1.8,0.3c-0.1,0.1-0.3,0-0.5,0l-1.5,0
		c-0.4-0.7-0.8-1-1.5-0.6c-0.5,0.2-0.7,0.1-1.1,0c-0.3-0.1-0.6-0.1-1-0.1c-0.2,0-0.5,0.1-0.7,0.2c-0.2,0.1-0.4,0.4-0.5,0.4
		c-0.5-0.1-0.8-0.1-1-0.2c-0.1,0-0.2-0.1-0.3-0.2c-0.3,0-0.6,0-0.9,0.3c-0.3,0.3-0.6-0.4-0.9,0c-0.1,0.1-0.2-0.2-0.4-0.1
		c-0.8,0.3-1.6,0.2-2.3-0.3c-0.1,0.1-0.3,0.3-0.4,0.4c-0.4,0-0.7-0.1-1-0.1c-0.3,0-0.5,0.1-0.7,0.3c-0.3,0.2-0.4-0.4-0.7-0.1
		c-0.1,0.1-0.4-0.1-0.8-0.2c0.3,0.5,0.6,0.8,0.3,1.2c-0.1-0.1-0.2-0.1-0.3-0.2c-0.1,0.2-0.1,0.3-0.2,0.4c-0.5-0.4-1-0.7-1.6-1.2
		c0,0.5-0.3,0.6-0.6,0.8c0,0,0,0.1,0,0.1c-0.1,0.2-0.2,0.4-0.3,0.2c-0.1,0.1-0.1-0.2-0.1-0.4c0,0,0-0.1,0.1-0.1
		c0-0.4-0.1-0.6-0.2-0.8c-0.2,0.3-0.4,0-0.6,0.1c0,0.1-0.1,0.3-0.1,0.4c-0.2-0.3-0.4-0.5-0.6-0.8c-0.2,0.3-0.7,0.2-0.6,0.7l-0.3-0.1
		c-0.1,0-0.3-0.1-0.5-0.1c0.3,0.6,0.3,0.6-0.1,0.7l-0.2-1c-0.3,0.1-0.3,0.3-0.4,0.4c-0.1,0.1-0.3,0.4-0.4,0.4
		c-0.4-0.1-1-0.1-1.3-0.4c-0.4-0.4-0.8-0.1-1.2-0.1c-0.1,0-0.4,0.1-0.4,0c-0.2-0.5-0.4,0.3-0.7-0.1c-0.1-0.1-0.6-0.1-0.9-0.1
		c-0.3,0-0.6,0-0.9,0c-0.1-0.2-0.1-0.4-0.1-0.4c-0.5,0.1-0.9,0.2-1.4,0.3c-0.1,0-0.3,0.1-0.4,0.1c-0.5-0.2-1-0.4-1.5-0.6
		c-0.3,0.2-0.6,0.5-1,0.8c0,0-0.1,0-0.2,0.1c-0.1-0.2-0.1-0.3-0.2-0.4c-0.2,0.2-0.3,0.3-0.5,0.5c-0.3-0.3-0.6-0.5-0.8,0
		c0.1,0,0.1,0.1,0.2,0.1c-0.1,0-0.1,0.1-0.1,0c0,0-0.1-0.1-0.1-0.2c0,0,0.1,0,0.1,0c-0.6-0.2-0.7,0.6-1.2,0.5
		c-0.1-0.1-0.2-0.3-0.3-0.5c-0.1,0.2-0.1,0.3-0.2,0.5c-1-0.4-1.8-0.4-2.5-0.1l-0.2-0.5c0,0,0,0-0.1,0l0,0.1
		c-0.2,0.1-0.4,0.3-0.8,0.6c-0.2,0.2-0.4,0.2-0.6,0.3c0-0.2,0.1-0.3,0.2-0.4c0.1-0.1,0.1-0.2,0.2-0.4c-0.1,0-0.4-0.1-0.4-0.1
		c-0.2,0.3-0.4-0.1-0.5,0c-0.1,0.2-0.2,0.4-0.3,0.6c0,0-0.1,0.1-0.2,0.1c-0.2-0.2-0.4-0.5-0.6-0.7c-0.6,0.1-0.8,0.6-1.1,0.9
		c0,0-0.1,0-0.2,0c0-0.2-0.1-0.4-0.1-0.7c-0.2,0.3-0.4,0.5-0.5,0.8l-0.2-0.1c0.1-0.3,0.2-0.6,0.3-1c-0.3,0.2-0.4,0.2-0.5,0.3
		c0.1,0.4-0.2,0.6-0.6,0.8c-0.3-0.3-0.5-0.6-0.8-1c-1.1,0.2-1.2,0.2-1.4-0.2c-0.5,0-1.1,0.2-1.6,0c-0.5-0.2-0.9,0-1.3,0.1
		c-0.4,0.2-0.7,0.2-1.1,0.2c-0.2,0-0.4,0.2-0.6,0.2c-0.2,0-0.5-0.1-0.7-0.1c-0.3,0-0.7,0-1,0c-0.3,0-0.7-0.1-0.8,0.1
		c-0.3,0.3-0.6-0.2-0.8,0c-0.2,0.1-0.3,0.3-0.4,0.5c0-0.1-0.1-0.2-0.1-0.3c0-0.1-0.1-0.3-0.1-0.4c-0.7-0.1-0.3,0.5-0.5,0.7
		c-0.5,0-0.9,0-1.4,0c-0.2-0.5-0.5-0.5-0.5-0.3c0,0.5-0.3,0.3-0.6,0.4c-0.1,0-0.1,0.1-0.1,0.1c0.1,0.2,0.1,0.4,0.3,0.7
		c-0.4-0.2-0.6-0.2-0.8-0.3c0,0.2,0,0.5,0,0.8c-0.5-0.3-0.8-0.5-1.2-0.7c-0.3,0.2-0.6,0.4-1,0.7c-0.1-0.1-0.1-0.3-0.2-0.4
		c-0.3,0.2-0.6,0.5-0.9,0.8l0,0c0,0-0.1,0.1-0.1,0c-0.1,0.1-0.2,0-0.1,0c0-0.1,0.1-0.1,0.1-0.1l0.1,0c0.1-0.4,0-0.7,0.2-0.9
		c0,0-0.1-0.2-0.1-0.4c-0.1,0.1-0.3,0.1-0.3,0.2c0,0.4-0.3,0.3-0.5,0.3l-0.2,0.2L85,17.3c-0.2-0.3-0.8,0-0.8-0.5
		c-0.4-0.1-0.7-0.5-1.3-0.2c-0.3,0.2-0.7,0.1-1,0.2c0,0-0.1-0.1-0.2-0.1c0.2-0.1,0.3-0.2,0.7-0.4c-0.4,0-0.6,0-0.7,0
		c-0.3,0.1-0.7,0.4-1,0.4c-0.4-0.1-0.8-0.2-1.1,0.1c-0.7-0.4-1.2-0.1-1.8,0.3c-0.1,0.1-0.3,0-0.5,0L76,17.2c-0.4-0.7-0.8-1-1.5-0.6
		c-0.5,0.3-0.7,0.1-1.1,0c-0.3-0.1-0.6-0.1-1-0.1c-0.2,0-0.5,0.1-0.6,0.2c-0.2,0.1-0.4,0.4-0.5,0.5c-0.5-0.1-0.8-0.1-1-0.2
		c-0.1,0-0.2-0.1-0.3-0.2c-0.3,0-0.6,0-0.9,0.3c-0.3,0.3-0.6-0.4-0.9,0c-0.1,0.1-0.2-0.2-0.4-0.1c-0.8,0.3-1.6,0.3-2.3-0.2
		c-0.1,0.1-0.3,0.3-0.4,0.4c-0.4,0-0.7-0.1-1-0.1c-0.3,0-0.5,0.1-0.7,0.3c-0.3,0.2-0.4-0.4-0.7-0.1c-0.1,0.1-0.4-0.1-0.8-0.1
		c0.3,0.5,0.6,0.8,0.3,1.2C62,18.1,61.9,18,61.8,18c-0.1,0.2-0.1,0.3-0.2,0.4c-0.5-0.4-1-0.7-1.6-1.2c0,0.5-0.3,0.6-0.6,0.8
		c0,0,0,0.1,0,0.1c0,0.2-0.2,0.4-0.3,0.2C59,18.5,58.9,18.2,59,18c0,0,0-0.1,0.1-0.1c-0.1-0.4-0.1-0.6-0.2-0.8
		c-0.2,0.3-0.4,0-0.6,0.1c0,0.1-0.1,0.3-0.1,0.4c-0.2-0.3-0.4-0.5-0.6-0.7c-0.1,0.4-0.7,0.2-0.6,0.7l-0.3-0.1c-0.1,0-0.3,0-0.5-0.1
		c0.3,0.6,0.3,0.6-0.1,0.7l-0.2-0.9c-0.3,0.1-0.3,0.3-0.4,0.4C55.3,17.7,55.2,18,55,18c-0.4-0.1-1-0.1-1.3-0.4
		c-0.5-0.4-0.8-0.1-1.2-0.1c-0.1,0-0.4,0.1-0.4,0c-0.2-0.4-0.4,0.3-0.7-0.1c-0.1-0.1-0.6,0-0.9,0c-0.3,0-0.6,0-0.9,0
		c-0.1-0.2-0.1-0.4-0.1-0.4c-0.5,0.1-0.9,0.2-1.4,0.4c-0.1,0-0.3,0.1-0.4,0.1c-0.5-0.2-1-0.3-1.6-0.5c-0.3,0.2-0.6,0.6-1,0.9
		c0,0-0.1,0-0.2,0.1c-0.1-0.2-0.1-0.3-0.2-0.4c-0.2,0.2-0.3,0.3-0.5,0.5c-0.3-0.3-0.6-0.4-0.8,0c0.1,0,0.1,0.1,0.2,0.1
		c-0.1,0-0.1,0.1-0.1,0c0,0-0.1-0.1-0.1-0.2c0,0,0.1,0,0.1,0c-0.6-0.2-0.6,0.6-1.2,0.5c-0.1-0.1-0.2-0.3-0.3-0.5
		c-0.1,0.2-0.1,0.3-0.2,0.5c-1-0.3-1.8-0.4-2.5-0.1l-0.2-0.5c0,0,0,0-0.1,0l0,0.1c-0.2,0.1-0.4,0.3-0.8,0.6
		c-0.2,0.2-0.5,0.2-0.8,0.3c0-0.2,0.2-0.3,0.3-0.4c0.1-0.1,0.2-0.2,0.2-0.4c-0.2,0-0.5-0.1-0.5,0c-0.1,0.2-0.3,0.2-0.5,0.1
		c-0.2,0-0.4-0.1-0.5,0c-0.3,0.2-0.4,0.4-0.6,0.6c-0.1,0.1-0.2,0.1-0.4,0.1c-0.4-0.2-0.8-0.4-1.2-0.5c-1.2,0.3-1.4,0.9-1.8,1.4
		c0,0-0.2,0.1-0.3,0.1c-0.1-0.2-0.3-0.4-0.5-0.6c-0.2,0.4-0.4,0.7-0.6,1l-0.3,0.1c0-0.3,0-0.6,0.1-1.1c-0.4,0.3-0.6,0.5-0.7,0.7
		c0.3,0.3,0,0.7-0.6,1.2c-0.6,0-1.2,0-1.8,0c-0.1,0.1-0.3,0.2-0.4,0.3c-1.2,1.2-1.2,1.2-1.7,1.2c-0.7,0.7-1.2,1.8-1.8,2.3
		c-0.7,0.7-0.9,1.5-1.1,2.2c-0.2,0.7-0.4,1.4-0.5,2.1c-0.1,0.4-0.1,0.9-0.2,1.3c-0.1,0.5-0.3,0.9-0.4,1.3c-0.2,0.8-0.2,1.1-0.2,1.5
		c0,0.4-0.2,0.8,0,1c0.3,0.5-0.3,0.6-0.1,1c0.1,0.2,0.3,0.3,0.4,0.5c-0.1,0-0.2,0.1-0.3,0.1c-0.1,0-0.3,0-0.4,0
		c-0.1,0.7,0.5,0.3,0.6,0.6c0,0.5-0.1,1-0.1,1.4c-0.5,0.2-0.6,0.4-0.3,0.5c0.5,0.1,0.3,0.4,0.3,0.6c0,0.1,0.1,0.1,0.1,0.1
		c0.2-0.1,0.4-0.1,0.8-0.2c-0.2,0.4-0.3,0.6-0.4,0.8c0.2,0,0.5,0,0.8,0c-0.3,0.4-0.6,0.8-0.8,1.1c0.2,0.3,0.4,0.7,0.6,1
		c-0.1,0-0.3,0.1-0.4,0.2c0.2,0.3,0.4,0.6,0.7,1l0,0c0,0.1,0.1,0.1,0,0.1c0.1,0.1,0,0.2,0,0.2c-0.1,0-0.1-0.1-0.1-0.1l0.1,0
		c-0.4-0.1-0.7,0-0.9-0.3c0,0-0.2,0.1-0.4,0.1c0.1,0.1,0.1,0.3,0.2,0.3c0.4,0,0.2,0.3,0.3,0.5l0.2,0.2L22,44.3
		c-0.3,0.1,0,0.8-0.6,0.7c-0.2,0.4-0.6,0.7-0.3,1.3c0.1,0.3,0.1,0.7,0.1,1.1c0,0-0.1,0.1-0.1,0.2c-0.1-0.2-0.1-0.3-0.3-0.7
		c0,0.4,0,0.6,0,0.7c0.1,0.3,0.4,0.7,0.3,1c-0.1,0.4-0.3,0.8,0.1,1.1c-0.4,0.7-0.2,1.3,0.3,1.8c0.1,0.1,0,0.3,0,0.5l0,1.5
		c-0.7,0.4-1,0.8-0.7,1.5c0.2,0.5,0.1,0.7,0,1.1c-0.1,0.3-0.2,0.7-0.2,1c0,0.2,0.1,0.5,0.2,0.7c0.1,0.2,0.4,0.4,0.4,0.5
		c-0.1,0.5-0.1,0.8-0.2,1.1c0,0.1-0.1,0.2-0.2,0.3c0,0.3,0,0.7,0.3,0.9c0.3,0.3-0.4,0.6,0,1c0.1,0.1-0.2,0.2-0.1,0.5
		c0.3,0.8,0.2,1.6-0.3,2.4c0.1,0.1,0.3,0.3,0.4,0.4c0,0.4-0.1,0.7-0.1,1.1c0,0.3,0.1,0.6,0.3,0.8c0.2,0.3-0.4,0.4-0.1,0.7
		c0.1,0.1-0.1,0.4-0.1,0.8c0.5-0.3,0.8-0.6,1.2-0.4c-0.1,0.1-0.1,0.2-0.2,0.3c0.2,0.1,0.3,0.1,0.4,0.2c-0.4,0.5-0.7,1.1-1.1,1.7
		c0.5,0,0.6,0.2,0.8,0.6c0,0,0.1,0,0.1,0c0.2,0,0.4,0.2,0.2,0.3c0.1,0.1-0.2,0.2-0.4,0.1c0,0-0.1,0-0.1-0.1
		c-0.4,0.1-0.6,0.2-0.8,0.3c0.3,0.2,0,0.4,0.1,0.6c0.1,0,0.3,0.1,0.4,0.1c-0.3,0.2-0.5,0.4-0.7,0.6c0.4,0.1,0.2,0.7,0.7,0.6l0,0.3
		c0,0.1,0,0.3-0.1,0.5c0.5-0.4,0.6-0.3,0.7,0.1l-0.9,0.2c0.1,0.3,0.3,0.3,0.4,0.4c0.2,0.1,0.4,0.3,0.4,0.4c0,0.5,0,1-0.3,1.3
		c-0.4,0.5,0,0.9,0,1.3c0,0.1,0.1,0.4,0.1,0.4c-0.4,0.2,0.4,0.4,0,0.7c-0.1,0.1,0,0.6,0,0.9c0,0.3,0.1,0.6,0.1,0.9
		c-0.2,0.1-0.4,0.2-0.4,0.2c0.1,0.5,0.3,0.9,0.4,1.4c0,0.1,0.1,0.3,0.1,0.4c-0.1,0.5-0.3,1-0.4,1.6c0.3,0.3,0.6,0.6,0.9,0.9
		c0,0,0,0.1,0.1,0.2c-0.1,0.1-0.3,0.1-0.4,0.2c0.2,0.2,0.4,0.3,0.5,0.5c-0.2,0.3-0.4,0.7,0.1,0.8c0-0.1,0.1-0.1,0.1-0.2
		c0,0.1,0.1,0.1,0.1,0.1c0,0-0.1,0.1-0.2,0.1c0,0,0-0.1,0-0.1c-0.1,0.6,0.7,0.6,0.6,1.2c-0.1,0.1-0.3,0.2-0.5,0.3
		c0.2,0,0.3,0.1,0.5,0.1c-0.2,1-0.2,1.9,0.2,2.6l-0.4,0.3c0,0,0,0,0,0.1l0.1,0c0.1,0.2,0.3,0.4,0.7,0.7c0.2,0.1,0.3,0.4,0.4,0.6
		c-0.2,0-0.3-0.1-0.5-0.2c-0.1-0.1-0.3-0.1-0.4-0.2c0,0.1,0,0.4,0,0.4c0.4,0.1-0.1,0.4,0.1,0.5c0.2,0.1,0.4,0.2,0.6,0.3
		c0.1,0,0.1,0.1,0.1,0.2c-0.2,0.2-0.4,0.5-0.6,0.7c0.1,0.7,0.7,0.8,1.1,1c0,0,0,0.1,0,0.2c-0.2,0.1-0.4,0.1-0.7,0.2
		c0.3,0.2,0.6,0.3,0.8,0.4l0,0.2c-0.3,0-0.6-0.1-1-0.1c0.2,0.2,0.3,0.4,0.4,0.5c0.4-0.1,0.7,0.1,0.9,0.5c-0.3,0.3-0.5,0.6-0.8,1
		c0.4,1.1,0.4,1.2,0,1.5c0.1,0.5,0.4,1.1,0.3,1.6c-0.2,0.6,0.1,0.9,0.3,1.3c0.2,0.4,0.3,0.7,0.4,1.1c0.1,0.2,0.3,0.4,0.3,0.6
		c0,0.2,0,0.5,0,0.8c0,0.3,0.1,0.7,0.2,1c0.1,0.3,0.1,0.7,0.2,0.8c0.4,0.3-0.1,0.6,0.1,0.8c0.2,0.1,0.4,0.2,0.5,0.3
		c-0.1,0-0.2,0.1-0.3,0.1c-0.1,0.1-0.3,0.1-0.4,0.2c0.1,0.7,0.5,0.2,0.8,0.4c0.1,0.5,0.2,0.9,0.3,1.4c-0.4,0.3-0.4,0.6-0.2,0.6
		c0.5,0,0.4,0.3,0.5,0.6c0,0.1,0.1,0.1,0.1,0.1c0.2-0.1,0.4-0.2,0.7-0.4c-0.1,0.5-0.1,0.7-0.1,1c0.2-0.1,0.4-0.1,0.8-0.2
		c-0.2,0.6-0.3,1-0.4,1.5c0.3,0.3,0.7,0.6,1,1c-0.1,0.1-0.2,0.2-0.3,0.3c0.3,0.3,0.7,0.6,1.1,0.9l0-0.1c0.1,0,0.1,0.1,0,0.1
		c0.1,0.1,0.1,0.2,0.1,0.2c-0.1,0-0.1-0.1-0.2-0.1l0-0.1c-0.4,0.1-0.6,0.3-1,0c0,0-0.2,0.2-0.3,0.3c0.1,0.1,0.3,0.4,0.4,0.3
		c0.4-0.1,0.4,0.3,0.5,0.6l0.3,0.1l-0.1,0.2c-0.2,0.3,0.5,1.1,0,1.2c0.2,0.6,0,1.3,0.8,1.9c0.4,0.3,0.8,0.9,1.2,1.4
		c0.1,0.1,0.1,0.2,0.1,0.3c-0.2-0.2-0.5-0.3-1-0.8c0.4,0.6,0.6,0.8,0.8,1c0.5,0.4,1.1,0.7,1.4,1.1c0.5,0.6,0.9,1.1,1.6,1.2
		c0.7,1.1,1.7,1.4,2.7,1.4c0.2,0,0.5,0.2,0.7,0.3c0.7,0.3,1.5,0.7,2.2,0.9c0.3,0.9,0.9,1.3,2,1.3c0.7-0.1,1,0.1,1.5,0.4
		c0.4,0.2,0.9,0.3,1.3,0.4c0.3,0,0.6,0,0.9-0.1c0.3-0.1,0.6-0.3,0.7-0.4c0.6,0.1,0.9,0.2,1.3,0.3c0.1,0,0.2,0.2,0.4,0.3
		c0.4,0,0.8,0.1,1.1-0.2c0.3-0.3,0.6,0.5,1,0.1c0.1-0.1,0.2,0.2,0.5,0.1c0.9-0.3,1.7-0.2,2.4,0.4c0.1-0.1,0.3-0.3,0.4-0.4
		c0.4,0.1,0.7,0.1,1,0.1c0.3,0,0.5-0.1,0.8-0.2c0.3-0.2,0.4,0.4,0.7,0.1c0.1-0.1,0.4,0.1,0.8,0.2c-0.2-0.5-0.6-0.8-0.3-1.2
		c0.1,0.1,0.2,0.1,0.3,0.2c0.1-0.2,0.2-0.3,0.2-0.4c0.5,0.4,1,0.8,1.6,1.2c0-0.5,0.3-0.6,0.6-0.8c0,0,0-0.1,0-0.1
		c0.1-0.2,0.2-0.4,0.3-0.2c0.1-0.1,0.1,0.2,0.1,0.4c0,0,0,0.1-0.1,0.1c0,0.4,0.1,0.6,0.2,0.8c0.2-0.3,0.4,0,0.6-0.1
		c0-0.1,0.1-0.3,0.1-0.4c0.2,0.3,0.3,0.5,0.5,0.8c0.2-0.3,0.7-0.2,0.6-0.7l0.3,0.1c0.1,0,0.3,0.1,0.5,0.1c-0.3-0.6-0.3-0.6,0.2-0.7
		l0.1,1c0.3-0.1,0.3-0.3,0.4-0.4c0.1-0.1,0.3-0.4,0.5-0.3c0.4,0.1,1,0.1,1.3,0.4c0.4,0.5,0.8,0.1,1.2,0.2c0.1,0,0.4-0.1,0.4,0
		c0.1,0.5,0.4-0.3,0.7,0.1c0.1,0.1,0.6,0.1,0.9,0.1c0.3,0,0.6,0,0.9,0c0.1,0.2,0.1,0.4,0.1,0.4c0.5-0.1,0.9-0.2,1.4-0.3
		c0.1,0,0.3-0.1,0.4,0c0.5,0.2,1,0.4,1.5,0.6c0.3-0.2,0.7-0.5,1-0.8c0,0,0.1,0,0.2-0.1c0.1,0.2,0.1,0.3,0.2,0.4
		c0.2-0.2,0.4-0.3,0.5-0.5c0.3,0.3,0.6,0.5,0.8,0c-0.1,0-0.1-0.1-0.2-0.1c0.1,0,0.1-0.1,0.1,0c0,0.1,0,0.1,0.1,0.2c0,0-0.1,0-0.1,0
		c0.6,0.2,0.7-0.6,1.2-0.4c0.1,0.1,0.1,0.3,0.2,0.5c0.1-0.2,0.1-0.3,0.2-0.5c1,0.4,1.8,0.5,2.5,0.2l0.2,0.5c0,0,0,0,0.1,0l0-0.1
		c0.2-0.1,0.4-0.2,0.8-0.6c0.2-0.1,0.4-0.2,0.7-0.3c0,0.2-0.2,0.3-0.3,0.4c-0.1,0.1-0.1,0.2-0.2,0.3c0.1,0,0.4,0.1,0.4,0.1
		c0.2-0.3,0.4,0.1,0.5,0c0.2-0.2,0.2-0.4,0.4-0.6c0,0,0.1,0,0.2-0.1c0.2,0.3,0.4,0.5,0.5,0.7c0.6,0,0.8-0.5,1.2-0.9c0,0,0.1,0,0.2,0
		c0,0.2,0.1,0.4,0.1,0.7c0.2-0.3,0.4-0.5,0.5-0.8c0.1,0,0.1,0,0.2,0.1c-0.1,0.3-0.2,0.6-0.3,0.9c0.3-0.1,0.4-0.2,0.5-0.3
		c-0.1-0.4,0.2-0.6,0.6-0.7c0.3,0.3,0.5,0.7,0.8,1c1.2-0.2,1.2-0.1,1.4,0.3c0.5,0,1.1-0.2,1.6,0.1c0.5,0.3,0.9,0.1,1.3-0.1
		c0.4-0.1,0.8-0.2,1.1-0.2c0.2,0,0.4-0.2,0.7-0.2c0.2,0,0.5,0.1,0.7,0.2c0.3,0,0.7,0,1,0c0.3,0,0.7,0.1,0.8-0.1
		c0.4-0.3,0.5,0.3,0.8,0.1c0.2-0.1,0.3-0.3,0.4-0.5c0,0.1,0.1,0.2,0.1,0.3c0,0.1,0,0.3,0.1,0.4c0.7,0.1,0.3-0.5,0.5-0.7
		c0.5,0,0.9,0,1.4,0c0.2,0.5,0.5,0.6,0.5,0.3c0.1-0.5,0.3-0.3,0.6-0.4c0.1,0,0.1-0.1,0.1-0.1c-0.1-0.2-0.1-0.4-0.2-0.8
		c0.4,0.2,0.6,0.3,0.8,0.4c0-0.2,0-0.5,0-0.8c0.4,0.3,0.8,0.5,1.1,0.8c0.3-0.2,0.6-0.4,1-0.6c0.1,0.1,0.1,0.3,0.2,0.4
		c0.3-0.2,0.6-0.4,0.9-0.7c0,0,0,0,0,0c0,0,0.1-0.1,0.1,0c0.1-0.1,0.2,0,0.1,0c0,0.1-0.1,0.1-0.1,0.1c0,0,0,0,0,0
		c-0.1,0.4,0,0.7-0.3,0.9c0,0,0.1,0.2,0.1,0.4c0.1-0.1,0.3-0.1,0.3-0.2c0-0.4,0.3-0.3,0.5-0.3c0.1-0.1,0.1-0.1,0.2-0.2
		c0,0.1,0.1,0.1,0.1,0.2c0.1,0.3,0.8,0,0.7,0.6c0.4,0.2,0.7,0.6,1.2,0.3c0.3-0.1,0.7-0.1,1-0.1c0,0,0.1,0.1,0.2,0.1
		c-0.2,0.1-0.3,0.1-0.7,0.3c0.4,0,0.6,0,0.7,0c0.3-0.1,0.7-0.4,1-0.3c0.4,0.1,0.7,0.3,1.1-0.1c0.7,0.4,1.2,0.2,1.8-0.2
		c0.1-0.1,0.3,0,0.5,0c0.5,0,1,0,1.5,0c0.4,0.7,0.8,1,1.5,0.7c0.5-0.2,0.7-0.1,1.1,0.1c0.3,0.1,0.6,0.2,1,0.2c0.2,0,0.5-0.1,0.7-0.2
		c0.2-0.1,0.4-0.3,0.5-0.4c0.5,0.1,0.8,0.1,1,0.2c0.1,0,0.2,0.2,0.3,0.2c0.3,0,0.6,0.1,0.9-0.2c0.3-0.3,0.6,0.4,0.9,0.1
		c0.1-0.1,0.2,0.2,0.4,0.1c0.8-0.3,1.6-0.2,2.3,0.4c0.1-0.1,0.3-0.3,0.4-0.4c0.4,0.1,0.7,0.1,1,0.1c0.3,0,0.5-0.1,0.8-0.2
		c0.3-0.2,0.4,0.4,0.7,0.1c0.1-0.1,0.4,0.1,0.8,0.2c-0.2-0.5-0.6-0.8-0.3-1.2c0.1,0.1,0.2,0.1,0.3,0.2c0.1-0.2,0.2-0.3,0.2-0.4
		c0.5,0.4,1,0.8,1.6,1.2c0-0.5,0.3-0.6,0.6-0.8c0,0,0-0.1,0-0.1c0.1-0.2,0.2-0.4,0.3-0.2c0.1-0.1,0.1,0.2,0.1,0.4c0,0,0,0.1-0.1,0.1
		c0,0.4,0.1,0.6,0.2,0.8c0.2-0.3,0.4,0,0.6-0.1c0-0.1,0.1-0.3,0.1-0.4c0.2,0.3,0.3,0.5,0.5,0.8c0.2-0.3,0.7-0.2,0.6-0.7
		c0.1,0,0.2,0,0.3,0.1c0.1,0,0.3,0.1,0.5,0.1c-0.3-0.6-0.3-0.6,0.2-0.7c0,0.3,0.1,0.6,0.1,1c0.3-0.1,0.3-0.3,0.4-0.4
		c0.1-0.1,0.3-0.4,0.5-0.3c0.4,0.1,1,0.1,1.3,0.4c0.4,0.5,0.8,0.1,1.2,0.2c0.1,0,0.4-0.1,0.4,0c0.1,0.5,0.4-0.3,0.7,0.1
		c0.1,0.1,0.6,0.1,0.9,0.1c0.3,0,0.6,0,0.9,0c0.1,0.2,0.1,0.4,0.1,0.4c0.5-0.1,0.9-0.2,1.4-0.3c0.1,0,0.3-0.1,0.4,0
		c0.5,0.2,1,0.4,1.5,0.6c0.3-0.2,0.7-0.5,1-0.8c0,0,0.1,0,0.2-0.1c0.1,0.2,0.1,0.3,0.2,0.4c0.2-0.2,0.4-0.3,0.5-0.5
		c0.3,0.3,0.6,0.5,0.8,0c-0.1,0-0.1-0.1-0.2-0.1c0.1,0,0.1-0.1,0.1,0c0,0.1,0,0.1,0.1,0.2c0,0-0.1,0-0.1,0c0.6,0.2,0.7-0.6,1.2-0.4
		c0.1,0.1,0.1,0.3,0.2,0.5c0.1-0.2,0.1-0.3,0.2-0.5c1,0.4,1.8,0.5,2.5,0.2c0.1,0.2,0.1,0.3,0.2,0.5c0,0,0,0,0.1,0l0-0.1
		c0.2-0.1,0.4-0.2,0.8-0.6c0.2-0.1,0.4-0.2,0.7-0.3c0,0.2-0.2,0.3-0.3,0.4c-0.1,0.1-0.1,0.2-0.2,0.3c0.1,0,0.4,0.1,0.4,0.1
		c0.2-0.3,0.4,0.1,0.5,0c0.2-0.2,0.2-0.4,0.4-0.6c0,0,0.1,0,0.2-0.1c0.2,0.3,0.4,0.5,0.5,0.7c0.6,0,0.8-0.5,1.2-0.9c0,0,0.1,0,0.2,0
		c0,0.2,0.1,0.4,0.1,0.7c0.2-0.3,0.4-0.5,0.5-0.8c0.1,0,0.1,0,0.2,0.1c-0.1,0.3-0.2,0.6-0.3,0.9c0.3-0.1,0.4-0.2,0.5-0.3
		c-0.1-0.4,0.2-0.6,0.6-0.7c0.3,0.3,0.5,0.7,0.8,1c1.2-0.2,1.2-0.1,1.4,0.3c0.5,0,1.1-0.2,1.6,0.1c0.5,0.3,0.9,0.1,1.3-0.1
		c0.4-0.1,0.7-0.2,1.1-0.2c0.2,0,0.4-0.2,0.7-0.2c0.2,0,0.5,0.1,0.7,0.2c0.3,0,0.7,0,1,0c0.3,0,0.7,0.1,0.8-0.1
		c0.4-0.3,0.5,0.3,0.8,0.1c0.2-0.1,0.3-0.3,0.4-0.5c0,0.1,0.1,0.2,0.1,0.3c0,0.1,0,0.3,0.1,0.4c0.7,0.1,0.3-0.5,0.5-0.7
		c0.5,0,0.9,0,1.4,0c0.2,0.5,0.5,0.6,0.5,0.3c0.1-0.5,0.3-0.3,0.6-0.4c0.1,0,0.1-0.1,0.1-0.1c-0.1-0.2-0.1-0.4-0.2-0.8
		c0.4,0.2,0.6,0.3,0.8,0.4c0-0.2,0-0.5,0-0.8c0.4,0.3,0.8,0.5,1.1,0.8c0.3-0.2,0.6-0.4,1-0.6c0.1,0.1,0.1,0.3,0.2,0.4
		c0.3-0.2,0.6-0.4,0.9-0.7c0,0,0,0,0,0c0,0,0.1-0.1,0.1,0c0.1-0.1,0.2,0,0.1,0c0,0.1-0.1,0.1-0.1,0.1c0,0,0,0,0,0
		c-0.1,0.4,0,0.7-0.3,0.9c0,0,0.1,0.2,0.1,0.4c0.1-0.1,0.3-0.1,0.3-0.2c0-0.4,0.3-0.2,0.5-0.3c0.1-0.1,0.1-0.1,0.2-0.2
		c0,0.1,0.1,0.1,0.1,0.2c0.1,0.3,0.8,0,0.7,0.6c0.4,0.2,0.7,0.6,1.2,0.3c0.3-0.1,0.7-0.1,1-0.1c0,0,0.1,0.1,0.2,0.1
		c-0.2,0.1-0.3,0.1-0.7,0.3c0.4,0,0.6,0,0.7,0c0.3-0.1,0.7-0.4,1-0.3c0.4,0.1,0.7,0.3,1.1-0.1c0.7,0.4,1.2,0.2,1.8-0.2
		c0.1-0.1,0.3,0,0.5,0c0.5,0,1,0,1.5,0c0.4,0.7,0.8,1,1.5,0.7c0.5-0.2,0.7-0.1,1.1,0.1c0.3,0.1,0.6,0.2,1,0.2c0.2,0,0.5-0.1,0.7-0.2
		c0.2-0.1,0.4-0.3,0.5-0.4c0.5,0.1,0.8,0.1,1,0.2c0.1,0,0.2,0.2,0.3,0.2c0.3,0,0.6,0.1,0.9-0.2c0.3-0.3,0.6,0.4,0.9,0.1
		c0.1-0.1,0.2,0.2,0.4,0.1c0.8-0.3,1.6-0.2,2.3,0.4c0.1-0.1,0.3-0.3,0.4-0.4c0.4,0.1,0.7,0.1,1,0.1c0.3,0,0.5-0.1,0.8-0.2
		c0.3-0.2,0.4,0.4,0.7,0.1c0.1-0.1,0.4,0.1,0.8,0.2c-0.2-0.5-0.6-0.8-0.3-1.2c0.1,0.1,0.2,0.1,0.3,0.2c0.1-0.2,0.2-0.3,0.2-0.4
		c0.5,0.4,1,0.8,1.6,1.2c0-0.5,0.3-0.6,0.6-0.8c0,0,0-0.1,0-0.1c0.1-0.2,0.2-0.4,0.3-0.2c0.1-0.1,0.1,0.2,0.1,0.4c0,0,0,0.1-0.1,0.1
		c0,0.4,0.1,0.6,0.2,0.8c0.2-0.3,0.4,0,0.6-0.1c0-0.1,0.1-0.3,0.1-0.4c0.2,0.3,0.3,0.5,0.5,0.8c0.2-0.3,0.7-0.2,0.6-0.7
		c0.1,0,0.2,0,0.3,0.1c0.1,0,0.3,0.1,0.5,0.1c-0.3-0.6-0.3-0.6,0.2-0.7c0,0.3,0.1,0.6,0.1,1c0.3-0.1,0.3-0.3,0.4-0.4
		c0.1-0.1,0.3-0.4,0.5-0.3c0.4,0.1,1,0.1,1.3,0.4c0.4,0.5,0.8,0.1,1.2,0.2c0.1,0,0.4-0.1,0.4,0c0.1,0.5,0.4-0.3,0.7,0.1
		c0.1,0.1,0.6,0.1,0.9,0.1c0.3,0,0.6,0,0.9,0c0.1,0.2,0.1,0.4,0.1,0.4c0.5-0.1,0.9-0.2,1.4-0.3c0.1,0,0.3-0.1,0.4,0
		c0.5,0.2,1,0.4,1.5,0.6c0.3-0.2,0.7-0.5,1-0.8c0,0,0.1,0,0.2-0.1c0.1,0.2,0.1,0.3,0.2,0.4c0.2-0.2,0.4-0.3,0.5-0.5
		c0.3,0.3,0.6,0.5,0.8,0c-0.1,0-0.1-0.1-0.2-0.1c0.1,0,0.1-0.1,0.1,0c0,0.1,0.1,0.1,0.1,0.2c0,0-0.1,0-0.1,0
		c0.6,0.2,0.7-0.6,1.2-0.4c0.1,0.1,0.1,0.3,0.2,0.5c0.1-0.2,0.1-0.3,0.2-0.5c1,0.4,1.8,0.5,2.5,0.2c0.1,0.2,0.1,0.3,0.2,0.5
		c0,0,0,0,0.1,0l0-0.1c0.2-0.1,0.4-0.2,0.8-0.5c0.2-0.1,0.4-0.2,0.7-0.3c0,0.2-0.2,0.3-0.3,0.4c-0.1,0.1-0.1,0.2-0.2,0.3
		c0.1,0,0.4,0.1,0.4,0.1c0.2-0.3,0.4,0.1,0.5,0c0.2-0.2,0.2-0.4,0.4-0.6c0,0,0.1,0,0.2-0.1c0.2,0.3,0.4,0.5,0.5,0.7
		c0.6,0,0.8-0.5,1.2-0.9c0,0,0.1,0,0.2,0c0,0.2,0.1,0.4,0.1,0.7c0.2-0.3,0.4-0.5,0.5-0.8l0.2,0.1c-0.1,0.3-0.2,0.6-0.3,0.9
		c0.3-0.1,0.4-0.2,0.5-0.3c-0.1-0.4,0.2-0.6,0.6-0.7c0.3,0.3,0.5,0.7,0.8,1c1.2-0.2,1.2-0.1,1.4,0.3c0.5,0,1.1-0.2,1.6,0.1
		c0.5,0.3,0.9,0.1,1.3-0.1c0.4-0.1,0.7-0.2,1.1-0.2c0.2,0,0.4-0.2,0.7-0.2c0.2,0,0.5,0.1,0.7,0.2c0.3,0,0.7,0,1,0
		c0.3,0,0.7,0.1,0.8-0.1c0.4-0.3,0.5,0.3,0.8,0.1c0.2-0.1,0.3-0.3,0.4-0.5c0,0.1,0.1,0.2,0.1,0.3c0,0.1,0,0.3,0.1,0.4
		c0.7,0.1,0.3-0.5,0.5-0.7c0.5,0,0.9,0,1.4,0c0.2,0.5,0.5,0.6,0.5,0.3c0.1-0.5,0.3-0.3,0.6-0.4c0.1,0,0.1-0.1,0.1-0.1
		c-0.1-0.2-0.1-0.4-0.2-0.8c0.4,0.2,0.6,0.3,0.8,0.4c0-0.2,0-0.5,0-0.8c0.4,0.3,0.8,0.5,1.1,0.8c0.3-0.2,0.6-0.4,1-0.6
		c0.1,0.1,0.1,0.3,0.2,0.4c0.3-0.2,0.6-0.4,0.9-0.8l0,0c0,0,0.1-0.1,0.1,0c0.1-0.1,0.2,0,0.1,0c0,0.1-0.1,0.1-0.1,0.1l0,0
		c-0.1,0.4,0,0.7-0.3,0.9c0,0,0.1,0.2,0.1,0.4c0.1-0.1,0.3-0.1,0.3-0.2c0-0.4,0.3-0.3,0.5-0.3l0.2-0.2l0.1,0.2
		c0.1,0.3,0.8,0,0.7,0.6c0.4,0.2,0.7,0.6,1.2,0.3c0.3-0.1,0.7-0.1,1-0.1c0,0,0.1,0.1,0.2,0.1c-0.2,0.1-0.3,0.1-0.7,0.3
		c0.4,0,0.6,0,0.7,0c0.3-0.1,0.7-0.4,1-0.3c0.4,0.1,0.7,0.3,1.1-0.1c0.6,0.4,1.3,0.2,2-0.3c0.1-0.1,0.4,0,0.6,0l0.9,0l0.6,0l0.7-0.1
		c0.8,0.6,1.7,0.8,2.9,0.2c0.8-0.4,1.2-0.4,1.9-0.5c0.6-0.1,1.2-0.3,1.8-0.5c0.4-0.2,0.8-0.4,1-0.7c0.3-0.3,0.5-0.7,0.5-0.8
		c0.7-0.4,1.2-0.7,1.7-1c0.2-0.1,0.4-0.1,0.6-0.2c0.4-0.4,0.9-0.8,1-1.3c0.1-0.6,1-0.5,1.1-1.3c0-0.2,0.3-0.2,0.5-0.6
		c0.5-1.4,1.1-2.7,2-3.8c-0.1-0.3-0.1-0.6-0.2-0.8c0.2-0.7,0.4-1.3,0.4-1.9c0-0.5,0-1-0.1-1.4c-0.2-0.6,0.4-0.7,0.1-1.3
		c0-0.1,0-0.3,0-0.5C270.5,114.3,270.6,114.1,270.6,114z M269.6,109c0,0,0.1,0.1,0.1,0.1c-0.1,0-0.2,0.1-0.3,0.1
		c0,0-0.1-0.1-0.1-0.2C269.4,109,269.5,109,269.6,109z M262.7,38.6c0,0,0.1,0.1,0.1,0.1c-0.1,0-0.2,0.1-0.3,0.1c0,0-0.1-0.1-0.1-0.2
		C262.5,38.7,262.6,38.7,262.7,38.6z M22,36.7c0-0.1-0.1-0.1-0.1-0.2c0,0,0.1-0.1,0.1-0.1L22,36.7C22.1,36.7,22,36.7,22,36.7z
		 M21.9,72.6c0,0-0.1-0.1-0.1-0.2c0.1,0,0.2-0.1,0.3-0.1c0,0,0.1,0.1,0.1,0.2C22.1,72.6,22,72.6,21.9,72.6z M23.1,80.4
		c0-0.1-0.1-0.1-0.1-0.2c0,0,0-0.1,0.1-0.1C23.1,80.2,23.1,80.2,23.1,80.4C23.2,80.3,23.1,80.3,23.1,80.4z M266.8,83.2l0.1,0.2
		c0,0-0.1,0.1-0.1,0.1C266.8,83.4,266.8,83.4,266.8,83.2C266.7,83.3,266.8,83.3,266.8,83.2z M266.6,86.3l0.2,0.1
		c0,0-0.1,0.1-0.1,0.1C266.6,86.4,266.5,86.4,266.6,86.3C266.5,86.3,266.5,86.3,266.6,86.3z M266.2,73.7c0,0.1,0.1,0.1,0.1,0.2
		c0,0,0,0.1-0.1,0.1L266.2,73.7C266.2,73.7,266.2,73.7,266.2,73.7z M247.4,14c0,0,0.1,0.1,0.1,0.1c0,0.1-0.1,0.1-0.2,0.1
		c0,0-0.1-0.1-0.1-0.1L247.4,14z M243.2,13.3C243.3,13.3,243.3,13.4,243.2,13.3c0,0.1,0,0.1-0.1,0.2c0,0-0.1,0-0.1-0.1L243.2,13.3z
		 M233.5,13.3C233.5,13.3,233.5,13.3,233.5,13.3l-0.1,0.2c0,0-0.1-0.1-0.1-0.1C233.4,13.3,233.4,13.3,233.5,13.3z M198.6,13.6
		c0,0.1,0.1,0.2,0.1,0.3c0,0-0.1,0.1-0.2,0.1c0-0.1-0.1-0.2,0-0.3C198.4,13.6,198.5,13.6,198.6,13.6z M191,14.2
		C191,14.2,191,14.2,191,14.2c0,0.1,0,0.1-0.1,0.2c0,0-0.1,0-0.1-0.1C190.9,14.2,190.9,14.2,191,14.2z M175.5,15
		C175.5,15,175.6,15,175.5,15c0.1,0.1,0,0.2,0,0.2c0,0-0.1-0.1-0.1-0.1L175.5,15z M172.6,14.6C172.6,14.6,172.6,14.6,172.6,14.6
		c0,0.1,0,0.1-0.1,0.2c0,0-0.1,0-0.1-0.1L172.6,14.6z M163,14.6C163,14.6,163.1,14.6,163,14.6l-0.1,0.2c0,0-0.1-0.1-0.1-0.1
		C162.9,14.6,162.9,14.6,163,14.6z M128.1,15.2c0,0.1,0.1,0.2,0.1,0.3c0,0-0.1,0.1-0.2,0.1c0-0.1-0.1-0.2-0.1-0.3
		C127.9,15.3,128,15.3,128.1,15.2z M120.5,15.9C120.5,15.9,120.5,16,120.5,15.9c0,0.1,0,0.1-0.1,0.2c0,0-0.1,0-0.1-0.1
		C120.4,16,120.4,16,120.5,15.9z M105,16.9C105.1,16.9,105.1,16.9,105,16.9c0.1,0.1,0,0.2,0,0.2c0,0-0.1-0.1-0.1-0.1L105,16.9z
		 M102.1,16.5C102.1,16.5,102.2,16.6,102.1,16.5c0,0.1,0,0.1-0.1,0.2c0,0-0.1,0-0.1-0.1L102.1,16.5z M92.5,16.6
		C92.5,16.6,92.6,16.6,92.5,16.6l-0.1,0.2c0,0-0.1-0.1-0.1-0.1C92.4,16.7,92.5,16.6,92.5,16.6z M57.6,17.7c0,0.1,0.1,0.2,0.1,0.3
		c0,0-0.1,0.1-0.2,0.1c0-0.1-0.1-0.2-0.1-0.3C57.5,17.7,57.6,17.7,57.6,17.7z M50,18.5C50,18.5,50.1,18.5,50,18.5
		c0,0.1,0,0.1-0.1,0.2c0,0-0.1,0-0.1-0.1C49.9,18.5,50,18.5,50,18.5z M32.2,20.5c0.1,0,0.2,0,0.2,0c0,0.1,0,0.1-0.1,0.2
		c-0.1,0-0.1,0-0.2,0L32.2,20.5z M27.5,22.7c0.1,0,0.1,0,0.2,0c-0.1,0.1-0.1,0.2-0.2,0.2c0,0-0.1,0-0.2,0
		C27.4,22.9,27.5,22.8,27.5,22.7z M25.6,95.9C25.6,95.9,25.6,95.8,25.6,95.9c0.1-0.1,0.2-0.1,0.2,0c0,0,0,0.1-0.1,0.1L25.6,95.9z
		 M25.8,99.1l-0.1-0.1c0,0,0-0.1,0.1-0.1C25.8,98.9,25.8,98.9,25.8,99.1C25.8,99,25.8,99,25.8,99.1z M27.5,108.8
		c0,0-0.1-0.1-0.1-0.1c0,0,0-0.1,0.1-0.1l0.1,0.1C27.5,108.7,27.5,108.8,27.5,108.8z M61.5,129.1c0-0.1-0.1-0.2-0.1-0.3
		c0,0,0.1-0.1,0.2-0.1c0,0.1,0,0.2,0,0.3C61.6,129.1,61.5,129.1,61.5,129.1z M69.1,128.7C69.1,128.7,69,128.7,69.1,128.7
		c0-0.1,0-0.1,0.1-0.1c0,0,0.1,0,0.1,0.1C69.2,128.7,69.1,128.7,69.1,128.7z M84.6,128.5C84.5,128.5,84.5,128.4,84.6,128.5
		c-0.1-0.1,0-0.2,0-0.2c0,0,0.1,0.1,0.1,0.1C84.6,128.4,84.6,128.4,84.6,128.5z M87.5,129C87.4,128.9,87.4,128.9,87.5,129
		c0-0.1,0-0.1,0.1-0.2c0,0,0.1,0,0.1,0.1C87.6,128.9,87.5,128.9,87.5,129z M97,129.3C97,129.3,97,129.3,97,129.3
		c0-0.1,0-0.1,0.1-0.2c0,0,0.1,0.1,0.1,0.1C97.1,129.3,97.1,129.3,97,129.3z M131.9,130c0-0.1-0.1-0.2-0.1-0.3c0,0,0.1-0.1,0.2-0.1
		c0,0.1,0,0.2,0,0.3C132,129.9,131.9,129.9,131.9,130z M139.5,129.6C139.5,129.6,139.5,129.5,139.5,129.6c0-0.1,0-0.1,0.1-0.1
		c0,0,0.1,0,0.1,0.1C139.6,129.5,139.6,129.6,139.5,129.6z M155,129.3C154.9,129.3,154.9,129.3,155,129.3c-0.1-0.1,0-0.2,0-0.2
		c0,0,0.1,0.1,0.1,0.1C155,129.2,155,129.3,155,129.3z M157.9,129.8C157.8,129.8,157.8,129.8,157.9,129.8c0-0.1,0-0.1,0.1-0.2
		c0,0,0.1,0,0.1,0.1C158,129.8,157.9,129.8,157.9,129.8z M167.4,130.2C167.4,130.2,167.4,130.1,167.4,130.2c0-0.1,0-0.1,0.1-0.2
		c0,0,0.1,0.1,0.1,0.1C167.6,130.1,167.5,130.1,167.4,130.2z M202.3,130.8c0-0.1-0.1-0.2-0.1-0.3c0,0,0.1-0.1,0.2-0.1
		c0,0.1,0,0.2,0,0.3C202.5,130.8,202.4,130.8,202.3,130.8z M209.9,130.4C209.9,130.4,209.9,130.4,209.9,130.4c0-0.1,0-0.1,0.1-0.1
		c0,0,0.1,0,0.1,0.1C210,130.4,210,130.4,209.9,130.4z M225.4,130.2C225.4,130.2,225.3,130.1,225.4,130.2c-0.1-0.1,0-0.2,0-0.2
		c0,0,0.1,0.1,0.1,0.1L225.4,130.2z M228.3,130.7C228.3,130.6,228.2,130.6,228.3,130.7c0-0.1,0-0.1,0.1-0.2c0,0,0.1,0,0.1,0.1
		L228.3,130.7z M237.9,131C237.8,131,237.8,131,237.9,131l0.1-0.2c0,0,0.1,0.1,0.1,0.1C238,131,237.9,131,237.9,131z M268.4,101.8
		c0-0.1-0.1-0.1-0.1-0.2c0,0,0-0.1,0.1-0.1C268.4,101.6,268.5,101.6,268.4,101.8C268.5,101.7,268.5,101.7,268.4,101.8z"/>
	<path class="st0" d="M241.2,130.9c0,0.1,0,0.3,0,0.4c0.3-0.1,0.5-0.2,0.7-0.3c0,0,0-0.1-0.1-0.1
		C241.7,130.9,241.4,130.9,241.2,130.9z"/>
	<path class="st0" d="M240.5,131.7c0,0.1,0.1,0.1,0.1,0.2c0.1,0,0.2,0,0.4,0c-0.1-0.1-0.1-0.2-0.1-0.2
		C240.7,131.6,240.6,131.6,240.5,131.7z"/>
	<path class="st0" d="M223.1,131.8c0.1,0,0.2,0.1,0.3,0.1c0,0,0.1-0.1,0.1-0.2c-0.1,0-0.2-0.1-0.3,0
		C223.1,131.6,223.1,131.7,223.1,131.8z"/>
	<polygon class="st0" points="245.2,130.9 245.4,130.7 245.1,130.7 	"/>
	<path class="st0" d="M243.4,131C243.5,131,243.5,131.1,243.4,131c0.1,0.1,0.2,0,0.2,0c0,0-0.1-0.1-0.1-0.1L243.4,131z"/>
	<path class="st0" d="M226.2,131.5c0,0,0.1,0.1,0.1,0.1c0,0,0,0,0.1-0.1l-0.1-0.1L226.2,131.5z"/>
	<path class="st0" d="M265.7,127.9l0.1-0.3l-0.1-0.1c-0.1,0.1-0.2,0.2-0.2,0.3C265.6,127.9,265.7,127.9,265.7,127.9z"/>
	<path class="st0" d="M262.6,40.6c0.1-0.1,0.2-0.2,0.2-0.2c0,0-0.1-0.1-0.1-0.1c-0.1,0-0.3,0.1-0.5,0.1
		C262.4,40.4,262.5,40.5,262.6,40.6z"/>
	<polygon class="st0" points="264.5,67.4 264.5,67.3 264.5,67.3 	"/>
	<path class="st0" d="M266.3,70.4c-0.1-0.3-0.3-0.5-0.4-0.7c0,0-0.1,0-0.1,0.1c0,0.2,0,0.4,0.1,0.7C266,70.5,266.1,70.4,266.3,70.4z
		"/>
	<path class="st0" d="M266.8,71c0-0.1,0-0.2-0.1-0.3c-0.1,0.1-0.2,0.1-0.2,0.1c0,0.1,0.1,0.2,0.1,0.3C266.7,71.1,266.8,71,266.8,71z
		"/>
	<path class="st0" d="M268.6,88.2c0,0-0.1-0.1-0.2-0.1c0,0.1,0,0.2,0,0.4c0,0,0.1,0.1,0.2,0.1C268.5,88.4,268.6,88.3,268.6,88.2z"/>
	<polygon class="st0" points="265.4,66.5 265.2,66.3 265.2,66.6 	"/>
	<path class="st0" d="M265.6,68.1l0.1,0.2c0,0,0.1-0.1,0.1-0.1C265.8,68.1,265.8,68.1,265.6,68.1C265.7,68,265.7,68.1,265.6,68.1z"
		/>
	<path class="st0" d="M267.8,85.3l0.1,0.1c0-0.1,0.1-0.1,0.1-0.2c0,0-0.1,0-0.1-0.1L267.8,85.3z"/>
	<path class="st0" d="M265.1,51.3l-0.1-0.1l-0.1,0c0,0.1,0,0.1,0.1,0.2C265,51.4,265.1,51.3,265.1,51.3z"/>
	<path class="st0" d="M200.3,14c0-0.1-0.1-0.2-0.2-0.3c0,0-0.1,0.1-0.1,0.1c0,0.1,0,0.3,0,0.5C200.1,14.2,200.2,14.1,200.3,14z"/>
	<polygon class="st0" points="226.9,14.6 226.9,14.6 226.9,14.6 	"/>
	<path class="st0" d="M230.1,13.5c0-0.1,0-0.3,0-0.4c-0.3,0.1-0.5,0.2-0.7,0.3c0,0,0,0.1,0.1,0.1C229.7,13.5,229.9,13.5,230.1,13.5z
		"/>
	<path class="st0" d="M230.8,12.7c0-0.1-0.1-0.1-0.1-0.1c-0.1,0-0.2,0-0.3,0c0.1,0.1,0.1,0.2,0.1,0.2
		C230.6,12.8,230.7,12.7,230.8,12.7z"/>
	<path class="st0" d="M251.9,13.5c-0.2-0.1-0.4-0.2-0.5-0.3c-0.1,0-0.2,0-0.3,0.1c0.2,0.1,0.4,0.2,0.6,0.2
		C251.8,13.6,251.8,13.6,251.9,13.5z"/>
	<polygon class="st0" points="226.1,13.6 225.9,13.8 226.2,13.8 	"/>
	<path class="st0" d="M227.9,13.4C227.9,13.4,227.8,13.3,227.9,13.4c-0.1-0.1-0.2,0-0.2,0c0,0,0.1,0.1,0.1,0.1L227.9,13.4z"/>
	<path class="st0" d="M246.1,12.5c-0.1,0-0.1-0.1-0.2-0.1c0,0-0.1,0-0.1,0.1l0.2,0.1L246.1,12.5z"/>
	<path class="st0" d="M211.1,12.6l-0.1,0.1l0,0.1c0.1,0,0.1,0,0.2-0.1C211.1,12.8,211.1,12.7,211.1,12.6z"/>
	<path class="st0" d="M129.8,15.6c0-0.1-0.1-0.2-0.2-0.3c0,0-0.1,0.1-0.1,0.1c0,0.1,0,0.3,0,0.5C129.6,15.8,129.8,15.7,129.8,15.6z"
		/>
	<polygon class="st0" points="156.4,15.9 156.4,15.9 156.4,16 	"/>
	<path class="st0" d="M159.6,14.8c0-0.1,0-0.3,0-0.4c-0.3,0.1-0.5,0.2-0.7,0.3c0,0,0,0.1,0.1,0.1C159.2,14.8,159.4,14.8,159.6,14.8z
		"/>
	<path class="st0" d="M160.3,14c0-0.1-0.1-0.1-0.1-0.1c-0.1,0-0.2,0-0.3,0c0.1,0.1,0.1,0.2,0.1,0.2C160.1,14.1,160.2,14,160.3,14z"
		/>
	<path class="st0" d="M177.8,13.3c-0.1,0-0.2-0.1-0.3-0.1c0,0-0.1,0.1-0.1,0.2c0.1,0,0.2,0,0.4,0C177.7,13.5,177.7,13.4,177.8,13.3z
		"/>
	<polygon class="st0" points="155.6,15 155.5,15.2 155.7,15.2 	"/>
	<path class="st0" d="M157.4,14.8C157.4,14.7,157.4,14.7,157.4,14.8c-0.1-0.1-0.2,0-0.2,0c0,0,0.1,0.1,0.1,0.1L157.4,14.8z"/>
	<path class="st0" d="M174.6,13.7c0,0-0.1-0.1-0.2-0.1c0,0,0,0-0.1,0.1l0.1,0.1L174.6,13.7z"/>
	<path class="st0" d="M140.6,14.1l-0.1,0.1l0,0.1c0.1,0,0.1,0,0.2-0.1C140.6,14.3,140.6,14.2,140.6,14.1z"/>
	<path class="st0" d="M59.4,18.1c0-0.1-0.1-0.2-0.2-0.3c0,0-0.1,0.1-0.1,0.1c0,0.1,0,0.3,0,0.5C59.2,18.2,59.3,18.1,59.4,18.1z"/>
	<polygon class="st0" points="86,18.1 85.9,18 85.9,18.1 	"/>
	<path class="st0" d="M89.2,16.9c0-0.1,0-0.3-0.1-0.4c-0.3,0.1-0.5,0.2-0.7,0.4c0,0,0,0.1,0.1,0.1C88.7,16.9,88.9,16.9,89.2,16.9z"
		/>
	<path class="st0" d="M89.8,16.1c0-0.1-0.1-0.1-0.1-0.1c-0.1,0-0.2,0-0.3,0.1c0.1,0.1,0.1,0.2,0.1,0.2
		C89.6,16.2,89.7,16.1,89.8,16.1z"/>
	<path class="st0" d="M107.3,15.2c-0.1,0-0.2-0.1-0.3-0.1c0,0-0.1,0.1-0.1,0.2c0.1,0,0.2,0,0.4,0C107.2,15.3,107.2,15.2,107.3,15.2z
		"/>
	<polygon class="st0" points="85.2,17.1 85,17.3 85.2,17.3 	"/>
	<path class="st0" d="M87,16.9C86.9,16.8,86.9,16.8,87,16.9c-0.1-0.1-0.2,0-0.2,0c0,0,0.1,0.1,0.1,0.1L87,16.9z"/>
	<path class="st0" d="M104.1,15.6c0,0-0.1-0.1-0.2-0.1c0,0,0,0-0.1,0.1l0.1,0.1L104.1,15.6z"/>
	<path class="st0" d="M70.1,16.4L70,16.6l0,0.1c0.1,0,0.1,0,0.2-0.1C70.2,16.6,70.1,16.5,70.1,16.4z"/>
</g>
</svg>
